# File generated by FabConvert.com - Free Image and 3D model conversion tools

mtllib head.mtl

o obj1
v -0.39506447 0.15727746 -0.16077447
v -0.38313794 0.16023779 -0.16062558
v -0.38987899 0.16310966 -0.1577388
v -0.39382935 0.16309583 -0.15598083
v -0.39735889 0.16296875 -0.15768921
v -0.406021 0.15469885 -0.16406143
v -0.40332711 0.15457726 -0.16380811
v -0.40588284 0.1562748 -0.16320181
v -0.39349961 0.15367341 -0.16459882
v -0.38467169 0.1576314 -0.1621896
v -0.39576471 0.15408528 -0.16287839
v -0.39067137 0.15697765 -0.16599846
v -0.39843571 0.15115619 -0.16523969
v -0.39067137 0.15697765 -0.16599846
v -0.39349961 0.15367341 -0.16459882
v -0.39520633 0.155604 -0.16702139
v -0.39843571 0.15115619 -0.16523969
v -0.39499664 0.15877461 -0.16797209
v -0.40528309 0.1530689 -0.16512001
v -0.4067862 0.15461433 -0.16491377
v -0.40605211 0.15606368 -0.16567719
v -0.40528309 0.1530689 -0.16512001
v -0.4067862 0.15461433 -0.16491377
v -0.39897525 0.15695298 -0.16638911
v -0.40752447 0.15675402 -0.16381526
v -0.40744197 0.15524709 -0.16377211
v -0.40736675 0.15595317 -0.16488159
v -0.40744197 0.15524709 -0.16377211
v -0.40752447 0.15675402 -0.16381526
v -0.4067862 0.15461433 -0.16491377
v -0.40736675 0.15595317 -0.16488159
v -0.35334826 0.18526399 -0.15711713
v -0.3527385 0.18640339 -0.15747678
v -0.35371935 0.18686974 -0.15570581
v -0.35288572 0.18523633 -0.15796328
v -0.35470629 0.18483365 -0.15653789
v -0.35176384 0.18734396 -0.15862501
v -0.35406673 0.18397999 -0.15815854
v -0.37138462 0.19472313 -0.13538408
v -0.37861514 0.18212569 -0.14093661
v -0.36849535 0.18729866 -0.1430316
v -0.37138462 0.19472313 -0.13538408
v -0.36849535 0.18729866 -0.1430316
v -0.36216223 0.19532132 -0.14179254
v -0.35197747 0.2014159 -0.14927256
v -0.35470629 0.18483365 -0.15653789
v -0.37045956 0.17466712 -0.15282929
v -0.37371445 0.17069626 -0.15693033
v -0.37817335 0.17432249 -0.14807415
v -0.36750102 0.17226899 -0.1585269
v -0.37556899 0.16378713 -0.16024864
v -0.35281336 0.18488371 -0.1590848
v -0.34506774 0.20354152 -0.1592989
v -0.34476221 0.19829392 -0.16510224
v -0.34509718 0.19782495 -0.17005396
v -0.34872568 0.18924463 -0.166417
v -0.35966992 0.17612076 -0.1650182
v -0.35055614 0.19210088 -0.17464995
v -0.34910583 0.20371616 -0.18267405
v -0.36162317 0.17456055 -0.16401231
v -0.36184883 0.17418027 -0.16502523
v -0.36179149 0.17489743 -0.1663717
v -0.35966992 0.17612076 -0.1650182
v -0.36179149 0.17489743 -0.1663717
v -0.36049867 0.17701185 -0.16807139
v -0.35055614 0.19210088 -0.17464995
v -0.35682809 0.18838382 -0.18241
v -0.36846006 0.1937722 -0.19466686
v -0.35021138 0.20419812 -0.18508041
v -0.36947787 0.18079019 -0.182899
v -0.36366868 0.1752311 -0.16838706
v -0.37490404 0.17316914 -0.17666507
v -0.36162317 0.17456055 -0.16401231
v -0.35406673 0.18397999 -0.15815854
v -0.37787879 0.1613425 -0.16225147
v -0.36745358 0.16938829 -0.16359746
v -0.36184883 0.17418027 -0.16502523
v -0.36351442 0.17359054 -0.1658082
v -0.36351442 0.17359054 -0.1658082
v -0.36184883 0.17418027 -0.16502523
v -0.38701797 0.19426477 -0.13274276
v -0.39297032 0.19625556 -0.13133657
v -0.39298451 0.19278467 -0.13255727
v -0.38893974 0.18617439 -0.13681221
v -0.39678955 0.1860851 -0.13669872
v -0.38893974 0.18617439 -0.13681221
v -0.38553095 0.17707884 -0.1429528
v -0.38822651 0.16960037 -0.14858317
v -0.39816177 0.16959929 -0.14835989
v -0.41246021 0.19482279 -0.14316666
v -0.41307569 0.19359481 -0.14508641
v -0.41026735 0.19058812 -0.1440779
v -0.3983103 0.19415367 -0.132972
v -0.39678955 0.1860851 -0.13669872
v -0.41026735 0.19058812 -0.1440779
v -0.39973366 0.17700529 -0.14268875
v -0.4103111 0.17530477 -0.15547228
v -0.41098654 0.17497599 -0.1568799
v -0.41127825 0.17538321 -0.15652978
v -0.39735889 0.16296875 -0.15768921
v -0.41098654 0.17497599 -0.1568799
v -0.40588284 0.1562748 -0.16320181
v -0.37678576 0.1981647 -0.19724882
v -0.38669002 0.18526363 -0.1908257
v -0.38843799 0.18107927 -0.18734574
v -0.37804711 0.16588402 -0.16907239
v -0.38504291 0.16976678 -0.17287397
v -0.39836776 0.171597 -0.17167723
v -0.39244652 0.18107319 -0.1875397
v -0.41449487 0.19058442 -0.16590548
v -0.4141289 0.19155502 -0.17628086
v -0.40938628 0.1749357 -0.16882086
v -0.41148531 0.17541099 -0.15791929
v -0.3969624 0.18547666 -0.18986404
v -0.41348052 0.19422185 -0.17994666
v -0.40643477 0.19969213 -0.19485593
v -0.39605498 0.18159473 -0.18748021
v -0.40614283 0.17539501 -0.17562997
v -0.41345143 0.19206607 -0.17812109
v -0.40828109 0.1602881 -0.16591287
v -0.40346599 0.16755223 -0.16904795
v -0.40614283 0.17539501 -0.17562997
v -0.40346599 0.16755223 -0.16904795
v -0.39165998 0.1820668 -0.18939543
v -0.39239538 0.18384278 -0.19020343
v -0.39306319 0.18211293 -0.18931115
v -0.41369426 0.19477844 -0.14504874
v -0.41307569 0.19359481 -0.14508641
v -0.41246021 0.19482279 -0.14316666
v -0.41437483 0.1936245 -0.14686954
v -0.41176558 0.1756767 -0.15698242
v -0.4159708 0.19325411 -0.16283071
v -0.41433811 0.19595456 -0.14682317
v -0.41143715 0.17519307 -0.15700722
v -0.41143715 0.17519307 -0.15700722
v -0.41127825 0.17538321 -0.15652978
v -0.41610229 0.19439864 -0.16585064
v -0.41590118 0.19667459 -0.16260529
v -0.41348052 0.19422185 -0.17994666
v -0.41448355 0.19338763 -0.17783713
v -0.41480422 0.19476879 -0.1781081
v -0.41498375 0.19364238 -0.17658329
v -0.41345143 0.19206607 -0.17812109
v -0.40605211 0.15606368 -0.16567719
v -0.34272754 0.21621263 -0.16813564
v -0.34288108 0.2188766 -0.16916347
v -0.34308791 0.21820676 -0.16778862
v -0.34291482 0.2161063 -0.16674316
v -0.34290898 0.21619022 -0.16950428
v -0.3428303 0.21426272 -0.16729248
v -0.34287226 0.21454775 -0.16871154
v -0.35071361 0.24659252 -0.15697217
v -0.3488667 0.23047662 -0.15634632
v -0.34777224 0.23130882 -0.15984118
v -0.34986472 0.22674906 -0.15437686
v -0.35125494 0.23106658 -0.15368259
v -0.34717834 0.22575295 -0.15762186
v -0.35742533 0.2209208 -0.14374292
v -0.34736907 0.20387137 -0.15469766
v -0.34925914 0.20846009 -0.15200961
v -0.34548569 0.20930147 -0.15695202
v -0.35849726 0.21366727 -0.14113176
v -0.37089431 0.23897243 -0.13905907
v -0.36393595 0.22333288 -0.13855553
v -0.36604106 0.23914051 -0.14295077
v -0.36784291 0.21663141 -0.13529098
v -0.37888467 0.22212565 -0.13166273
v -0.37964153 0.21705782 -0.13054717
v -0.35150135 0.24996376 -0.15714991
v -0.35361087 0.24882686 -0.15498865
v -0.36202037 0.21660531 -0.13797092
v -0.36393595 0.22333288 -0.13855553
v -0.36202037 0.21660531 -0.13797092
v -0.37833703 0.21022391 -0.13141775
v -0.36289382 0.21231186 -0.13763821
v -0.37138462 0.19472313 -0.13538408
v -0.36216223 0.19532132 -0.14179254
v -0.36289382 0.21231186 -0.13763821
v -0.34494436 0.23970032 -0.17278397
v -0.34663188 0.2314167 -0.1850245
v -0.34396791 0.24002743 -0.17748868
v -0.34714711 0.2308135 -0.18714297
v -0.34682798 0.22865903 -0.18612731
v -0.34304833 0.24512243 -0.1833446
v -0.34628999 0.21055031 -0.1769166
v -0.34939206 0.20602441 -0.18473041
v -0.34858918 0.21603382 -0.1858952
v -0.35058153 0.24947739 -0.15867674
v -0.35021138 0.20419812 -0.18508041
v -0.35051274 0.20621514 -0.18615592
v -0.34939206 0.20602441 -0.18473041
v -0.35051274 0.20621514 -0.18615592
v -0.3479408 0.22913563 -0.18770337
v -0.34853017 0.23124409 -0.18941939
v -0.3479408 0.22913563 -0.18770337
v -0.34942758 0.22865129 -0.18890858
v -0.34853017 0.23124409 -0.18941939
v -0.34858918 0.21603382 -0.1858952
v -0.36333895 0.22832024 -0.20691907
v -0.3765372 0.22359908 -0.2106657
v -0.36825168 0.23785686 -0.21630228
v -0.34895325 0.24435973 -0.19690406
v -0.3571676 0.23849916 -0.20545471
v -0.36393404 0.21731353 -0.20163667
v -0.36853838 0.20136797 -0.19790936
v -0.37709355 0.21702945 -0.20760632
v -0.38329935 0.21888506 -0.13007796
v -0.38719893 0.22896934 -0.13376534
v -0.38332987 0.23887825 -0.13805079
v -0.39189613 0.23649466 -0.13778853
v -0.39871657 0.22419679 -0.13453794
v -0.39194131 0.24216413 -0.13915396
v -0.38368392 0.21460211 -0.12969136
v -0.40119982 0.21573019 -0.13290048
v -0.40483272 0.21681464 -0.13532829
v -0.40319729 0.21920323 -0.13389349
v -0.41169834 0.23935294 -0.14496493
v -0.4029485 0.21679437 -0.13328683
v -0.40130055 0.21772516 -0.13312984
v -0.4117049 0.23937345 -0.14497566
v -0.41170382 0.23937714 -0.14497626
v -0.41170776 0.23937488 -0.14497781
v -0.41170752 0.23936927 -0.14497709
v -0.40365398 0.21354544 -0.13370335
v -0.41449487 0.2168895 -0.14749062
v -0.41339934 0.19776583 -0.14448225
v -0.40483272 0.21681464 -0.13532829
v -0.41292369 0.20542979 -0.19258153
v -0.40643477 0.19969213 -0.19485593
v -0.38327563 0.2195009 -0.20924532
v -0.38599205 0.22727633 -0.2140404
v -0.38114631 0.23754811 -0.21828735
v -0.39106846 0.23550236 -0.21812022
v -0.39720345 0.22615182 -0.21232474
v -0.3912487 0.24090171 -0.21999991
v -0.38507378 0.21330678 -0.2066263
v -0.39332378 0.20241833 -0.19973207
v -0.40002298 0.2131412 -0.20505512
v -0.4060936 0.223616 -0.20712328
v -0.41637695 0.226722 -0.20322263
v -0.41234148 0.23768175 -0.21110344
v -0.40011287 0.21866226 -0.20721912
v -0.4067831 0.21586359 -0.20133173
v -0.39948869 0.23751605 -0.21677721
v -0.4067831 0.21586359 -0.20133173
v -0.41579092 0.21560884 -0.19584787
v -0.42137766 0.24543321 -0.15985286
v -0.42124438 0.23274899 -0.16008878
v -0.41170776 0.23937488 -0.14497781
v -0.41888416 0.22192848 -0.15562737
v -0.41170752 0.23936927 -0.14497709
v -0.41369426 0.19477844 -0.14504874
v -0.41339934 0.19776583 -0.14448225
v -0.41759706 0.21218204 -0.1552428
v -0.42162883 0.21852338 -0.17016625
v -0.42603052 0.23940086 -0.17346811
v -0.42686331 0.2395494 -0.17624331
v -0.42457235 0.22840118 -0.17486537
v -0.42174888 0.21570086 -0.17449117
v -0.42228007 0.21961486 -0.17949879
v -0.42372453 0.22923541 -0.18694568
v -0.42165327 0.22238338 -0.18760133
v -0.42261839 0.22974026 -0.19114769
v -0.42721212 0.24946856 -0.18973994
v -0.42121458 0.21052766 -0.17411757
v -0.42116857 0.2135303 -0.17088354
v -0.42097259 0.21313226 -0.17715168
v -0.41849625 0.21023583 -0.18743765
v -0.42091894 0.23833346 -0.20350718
v -0.427073 0.2493242 -0.19011581
v -0.41637695 0.226722 -0.20322263
v -0.41234148 0.23768175 -0.21110344
v -0.34353423 0.25835979 -0.17828453
v -0.34337413 0.26073182 -0.17875397
v -0.34373128 0.25984025 -0.17767191
v -0.3438642 0.25839257 -0.17722034
v -0.34309196 0.2585454 -0.17973363
v -0.34375429 0.25682247 -0.17749619
v -0.34356439 0.25650251 -0.17843473
v -0.35232842 0.26953197 -0.15881908
v -0.359146 0.2860589 -0.16226673
v -0.36993766 0.28049326 -0.1503526
v -0.36655366 0.26078033 -0.14756501
v -0.37008691 0.27417648 -0.14788473
v -0.37468088 0.26048553 -0.14499795
v -0.35284579 0.26804817 -0.15789533
v -0.37426937 0.2462225 -0.14096189
v -0.36801958 0.24464142 -0.14240849
v -0.35361087 0.24882686 -0.15498865
v -0.35265601 0.25162506 -0.15644443
v -0.35265601 0.25162506 -0.15644443
v -0.3483932 0.2645334 -0.16640723
v -0.34674096 0.27926147 -0.17496765
v -0.35104632 0.28337622 -0.17042387
v -0.35099149 0.27022541 -0.16098678
v -0.35136116 0.26832998 -0.15906644
v -0.34255981 0.2738905 -0.18418932
v -0.34527075 0.27943254 -0.17858911
v -0.34412289 0.27223504 -0.190678
v -0.34158516 0.26358116 -0.18720388
v -0.35026598 0.29008293 -0.18586397
v -0.34789848 0.25389302 -0.16621101
v -0.35094774 0.250893 -0.15768921
v -0.34136117 0.25515461 -0.18728125
v -0.34407759 0.2461133 -0.19058883
v -0.35284579 0.26804817 -0.15789533
v -0.35232842 0.26953197 -0.15881908
v -0.34636021 0.26430988 -0.19492221
v -0.3492732 0.27277839 -0.19632673
v -0.34636021 0.26430988 -0.19492221
v -0.35677516 0.25846303 -0.2085588
v -0.3492732 0.27277839 -0.19632673
v -0.34592569 0.25260782 -0.19482899
v -0.34895325 0.24435973 -0.19690406
v -0.35665834 0.25654888 -0.20848465
v -0.34592569 0.25260782 -0.19482899
v -0.35041177 0.29009187 -0.18610442
v -0.35996425 0.28053164 -0.20310652
v -0.3586731 0.25988352 -0.20974576
v -0.36881173 0.28095603 -0.2097739
v -0.35809112 0.25756133 -0.21010494
v -0.35984921 0.25756454 -0.21120942
v -0.37627935 0.25878441 -0.22133219
v -0.3754195 0.26731646 -0.21818471
v -0.35823417 0.25614929 -0.21027088
v -0.37390757 0.24783075 -0.21955013
v -0.38628125 0.26554751 -0.14517105
v -0.37678063 0.27726352 -0.14801586
v -0.39113104 0.27418959 -0.14668477
v -0.39553046 0.265679 -0.14516604
v -0.39130569 0.28701806 -0.15609396
v -0.38651884 0.25527585 -0.14418197
v -0.39658105 0.25555658 -0.14418983
v -0.40216494 0.27547252 -0.14969695
v -0.41095638 0.26920879 -0.15073729
v -0.41120183 0.27902162 -0.15664577
v -0.40750706 0.26011419 -0.14734912
v -0.41325116 0.26018918 -0.14982307
v -0.4117074 0.23938179 -0.14497781
v -0.39139771 0.29022706 -0.15881395
v -0.38784409 0.28964341 -0.15805423
v -0.39704978 0.28788602 -0.15921617
v -0.39095426 0.28081286 -0.21058953
v -0.39061117 0.28065193 -0.21076822
v -0.39093423 0.28057408 -0.21082616
v -0.39076793 0.28031147 -0.21097791
v -0.39117908 0.28015625 -0.21097827
v -0.39076793 0.28031147 -0.21097791
v -0.38285577 0.26194859 -0.22071946
v -0.3839308 0.25533056 -0.22206807
v -0.39918101 0.25605917 -0.21947122
v -0.39176464 0.28059959 -0.21040082
v -0.41992962 0.25887978 -0.20794904
v -0.41971529 0.25956726 -0.20769179
v -0.41964471 0.25887108 -0.20814002
v -0.39962482 0.26105285 -0.21825349
v -0.40465569 0.26421571 -0.2155267
v -0.39117908 0.28015625 -0.21097827
v -0.4041456 0.25884426 -0.21776426
v -0.41964471 0.25887108 -0.20814002
v -0.41964471 0.25887108 -0.20814002
v -0.4199003 0.25865912 -0.20795345
v -0.41992962 0.25887978 -0.20794904
v -0.40587437 0.25072122 -0.21649158
v -0.41526353 0.28076816 -0.16407919
v -0.41770935 0.27491951 -0.16266525
v -0.41738331 0.26325905 -0.15560031
v -0.41782975 0.25658739 -0.15518415
v -0.41770935 0.27491951 -0.16266525
v -0.42406797 0.26357365 -0.16677999
v -0.41738331 0.26325905 -0.15560031
v -0.41937721 0.27805972 -0.17087245
v -0.41526353 0.28076816 -0.16407919
v -0.4211967 0.27842653 -0.18053639
v -0.42529881 0.26921308 -0.17670763
v -0.42788839 0.25887775 -0.17661667
v -0.42722249 0.26772118 -0.19060254
v -0.42688799 0.26846075 -0.19084954
v -0.42721105 0.26788843 -0.19108164
v -0.42609692 0.26907682 -0.1916312
v -0.418589 0.28253853 -0.18799222
v -0.42714417 0.24344623 -0.17549729
v -0.41782975 0.25658739 -0.15518415
v -0.4244597 0.25472665 -0.16589499
v -0.42725289 0.24996233 -0.18943095
v -0.4272418 0.24983752 -0.18989086
v -0.41559088 0.27925622 -0.19971728
v -0.41550541 0.28116 -0.19652915
v -0.41204548 0.27961946 -0.20154679
v -0.4199003 0.25865912 -0.20795345
v -0.37074745 0.29019701 -0.16269565
v -0.34889984 0.28372324 -0.17739022
v -0.36051738 0.29534805 -0.17994618
v -0.35035837 0.29022682 -0.18593442
v -0.3503834 0.290241 -0.18586123
v -0.3503834 0.290241 -0.18586123
v -0.35035837 0.29022682 -0.18593442
v -0.35043585 0.29028618 -0.18593371
v -0.35033119 0.2901392 -0.18597865
v -0.35154343 0.29096675 -0.18541265
v -0.36726427 0.29860783 -0.18061757
v -0.38052082 0.30087054 -0.181463
v -0.38065326 0.30084503 -0.17955935
v -0.37948728 0.29886937 -0.17634213
v -0.36871529 0.30006135 -0.1869601
v -0.37170601 0.30083323 -0.18804574
v -0.37179554 0.30111802 -0.1862675
v -0.36454606 0.29857862 -0.18178618
v -0.37074745 0.29019701 -0.16269565
v -0.359146 0.2860589 -0.16226673
v -0.36310124 0.29711759 -0.17931569
v -0.36290634 0.29759932 -0.18078732
v -0.36051738 0.29534805 -0.17994618
v -0.35033119 0.2901392 -0.18597865
v -0.35038817 0.29022419 -0.18600762
v -0.35046422 0.29022753 -0.18600965
v -0.35041177 0.29009187 -0.18610442
v -0.37028658 0.29861879 -0.18935096
v -0.37333786 0.29854369 -0.1900996
v -0.37028658 0.29861879 -0.18935096
v -0.35046422 0.29022753 -0.18600965
v -0.36625886 0.28653944 -0.20202684
v -0.36625886 0.28653944 -0.20202684
v -0.36881173 0.28095603 -0.2097739
v -0.37276566 0.28751457 -0.20234954
v -0.35996425 0.28053164 -0.20310652
v -0.41150463 0.28342354 -0.16379285
v -0.38262272 0.29995608 -0.17829025
v -0.3825103 0.30063617 -0.18068278
v -0.39109099 0.29843175 -0.18022501
v -0.38376701 0.30101228 -0.18341088
v -0.3774879 0.30121922 -0.18732917
v -0.38726342 0.2945019 -0.16686904
v -0.39139771 0.29022706 -0.15881395
v -0.38784409 0.28964341 -0.15805423
v -0.39839947 0.29677808 -0.18158555
v -0.39905989 0.29554129 -0.17881441
v -0.39040363 0.3002938 -0.18850505
v -0.40432966 0.2914753 -0.17487264
v -0.4137038 0.28289652 -0.16832912
v -0.41150463 0.28342354 -0.16379285
v -0.40432966 0.2914753 -0.17487264
v -0.40352917 0.29332387 -0.18087578
v -0.41038704 0.28977191 -0.18725359
v -0.41464448 0.285079 -0.18252146
v -0.40200317 0.29543817 -0.18855548
v -0.41119409 0.28571582 -0.19452012
v -0.38860464 0.2945888 -0.19452012
v -0.39476109 0.29435468 -0.19423807
v -0.41064501 0.28229153 -0.1989193
v -0.41318059 0.28178573 -0.19901037
v -0.41204548 0.27961946 -0.20154679
v -0.41526353 0.28076816 -0.16407919
v -0.4137038 0.28289652 -0.16832912
v -0.41464448 0.285079 -0.18252146
v -0.41038704 0.28977191 -0.18725359
v -0.41559088 0.27925622 -0.19971728
v -0.41550541 0.28116 -0.19652915
v -0.41318059 0.28178573 -0.19901037
v -0.40332711 0.15457726 -0.16380811
v -0.39506447 0.15727746 -0.16077447
v -0.36049867 0.17701185 -0.16807139
v -0.34910583 0.20371616 -0.18267405
v -0.35682809 0.18838382 -0.18241
v -0.37787879 0.1613425 -0.16225147
v -0.37861514 0.18212569 -0.14093661
v -0.41307569 0.19359481 -0.14508641
v -0.37804711 0.16588402 -0.16907239
v -0.38467169 0.1576314 -0.1621896
v -0.3969624 0.18547666 -0.18986404
v -0.40828109 0.1602881 -0.16591287
v -0.40752447 0.15675402 -0.16381526
v -0.41098654 0.17497599 -0.1568799
v -0.36604106 0.23914051 -0.14295077
v -0.41169834 0.23935294 -0.14496493
v -0.39871657 0.22419679 -0.13453794
v -0.4117049 0.23937345 -0.14497566
v -0.41169834 0.23935294 -0.14496493
v -0.41170752 0.23936927 -0.14497709
v -0.40483272 0.21681464 -0.13532829
v -0.4060936 0.223616 -0.20712328
v -0.41579092 0.21560884 -0.19584787
v -0.41292369 0.20542979 -0.19258153
v -0.41170752 0.23936927 -0.14497709
v -0.41170776 0.23937488 -0.14497781
v -0.41888416 0.22192848 -0.15562737
v -0.359146 0.2860589 -0.16226673
v -0.35033119 0.2901392 -0.18597865
v -0.4117074 0.23938179 -0.14497781
v -0.41170382 0.23937714 -0.14497626
v -0.40750706 0.26011419 -0.14734912
v -0.40465569 0.26421571 -0.2155267
v -0.40465569 0.26421571 -0.2155267
v -0.4199003 0.25865912 -0.20795345
v -0.40587437 0.25072122 -0.21649158
v -0.4117074 0.23938179 -0.14497781
v -0.42137766 0.24543321 -0.15985286
v -0.4117074 0.23938179 -0.14497781
v -0.35104632 0.28337622 -0.17042387
v -0.39704978 0.28788602 -0.15921617
vn -0.00151 -0.56084 0.82792
vn 0.23108 -0.56604 0.79133
vn 0.23728 -0.66965 0.70375
vn 0.00879 -0.75088 0.66038
vn -0.3335 -0.65646 0.67664
vn -0.22286 -0.62974 0.74415
vn -0.12593 -0.53633 0.83456
vn -0.1509 -0.37304 0.91546
vn 0.33152 -0.87304 0.35763
vn 0.30725 -0.78178 0.5426
vn 0.07763 -0.65734 0.74959
vn 0.45696 -0.64885 -0.60843
vn -0.04218 -0.60345 0.79628
vn 0.27415 -0.56252 -0.78001
vn 0.36533 -0.58532 -0.72383
vn 0.10185 -0.40304 -0.9095
vn -0.00448 -0.30896 -0.95107
vn -0.03238 -0.35967 -0.93252
vn -0.14479 -0.2168 -0.96542
vn -0.42942 -0.24095 -0.87037
vn -0.22836 -0.23001 -0.94602
vn -0.21123 -0.58302 0.78452
vn -0.42628 -0.77894 0.45993
vn -0.15791 -0.25421 -0.95417
vn -0.34803 0.00779 0.93745
vn -0.23197 -0.46505 0.85435
vn -0.88729 -0.25949 -0.38129
vn -0.95044 -0.22908 -0.21023
vn -0.98559 -0.16818 -0.01807
vn -0.87852 -0.3738 -0.29745
vn -0.49582 -0.19465 -0.84633
vn 0.65779 -0.51461 0.54998
vn 0.82012 -0.30307 0.48534
vn 0.6732 -0.41879 0.60943
vn 0.79541 -0.50035 0.34201
vn 0.49904 -0.57979 0.64405
vn 0.86364 -0.37096 0.34133
vn 0.63742 -0.69761 0.32716
vn 0.43247 -0.55977 0.70684
vn 0.32966 -0.58657 0.73977
vn 0.46122 -0.57434 0.67632
vn 0.51256 -0.51117 0.68991
vn 0.52946 -0.52132 0.66925
vn 0.60229 -0.39457 0.69395
vn 0.73664 -0.21124 0.64245
vn 0.53425 -0.61707 0.57776
vn 0.43941 -0.68568 0.58031
vn 0.32264 -0.67031 0.66827
vn 0.35454 -0.69326 0.62745
vn 0.53332 -0.68152 0.5011
vn 0.43582 -0.67159 0.59918
vn 0.7904 -0.58451 0.18334
vn 0.92885 -0.18387 0.32162
vn 0.95192 -0.27722 0.13034
vn 0.92414 -0.29926 -0.23749
vn 0.83924 -0.53782 -0.08015
vn 0.71486 -0.69898 -0.02029
vn 0.78027 -0.47383 -0.40825
vn 0.89774 -0.22982 -0.37583
vn 0.66704 -0.72531 0.17025
vn 0.66081 -0.74158 -0.11574
vn 0.62455 -0.70003 -0.34626
vn 0.62989 -0.68276 -0.37024
vn 0.49121 -0.73764 -0.46324
vn 0.53884 -0.71518 -0.44517
vn 0.73207 -0.61244 -0.29832
vn 0.58534 -0.59054 -0.55556
vn 0.32079 -0.48563 -0.81318
vn 0.68558 -0.34055 -0.64343
vn 0.33121 -0.70723 -0.6246
vn 0.46821 -0.73353 -0.49265
vn 0.27009 -0.75132 -0.60213
vn 0.63376 -0.71651 0.29148
vn 0.55793 -0.656 0.50831
vn 0.46588 -0.87363 0.14045
vn 0.62399 -0.77938 -0.05656
vn 0.64135 -0.76551 -0.05163
vn 0.48797 -0.71831 -0.4959
vn 0.46521 -0.7453 -0.4776
vn 0.46722 -0.78845 -0.40005
vn 0.15891 -0.32984 0.93057
vn -0.06296 -0.17872 0.98188
vn -0.01593 -0.41754 0.90852
vn 0.11457 -0.49249 0.86275
vn -0.27685 -0.4887 0.82736
vn 0.05202 -0.54532 0.83661
vn 0.13829 -0.59787 0.78958
vn 0.17751 -0.72618 0.6642
vn -0.29971 -0.69391 0.65472
vn -0.70714 -0.21918 0.67224
vn -0.7011 -0.47709 0.52995
vn -0.57366 -0.44503 0.68765
vn -0.3883 -0.27469 0.87964
vn -0.22465 -0.4848 0.84528
vn -0.65018 -0.4233 0.63094
vn -0.34767 -0.53957 0.76681
vn -0.62914 -0.56848 0.5301
vn -0.53669 -0.72006 0.43986
vn -0.57618 -0.6502 0.49523
vn -0.27771 -0.3748 0.88453
vn -0.2951 -0.37728 0.87782
vn -0.30081 -0.42099 0.85574
vn 0.05149 -0.46472 -0.88396
vn 0.09482 -0.56482 -0.81975
vn 0.11489 -0.74281 -0.65958
vn 0.31666 -0.70434 -0.63532
vn -0.00359 -0.6614 -0.75003
vn -0.10757 -0.6193 -0.77775
vn -0.06693 -0.84858 -0.52482
vn -0.93735 -0.32684 -0.12066
vn -0.88078 -0.40379 -0.24735
vn -0.87209 -0.34289 -0.34913
vn -0.95661 -0.26353 -0.12432
vn -0.42237 -0.5118 -0.74811
vn -0.62134 -0.59362 -0.51143
vn -0.4367 -0.47889 -0.76155
vn -0.365 -0.67234 -0.64399
vn -0.28571 -0.65653 -0.6981
vn -0.60898 -0.39901 -0.68552
vn -0.93506 -0.22397 -0.27476
vn -0.11936 -0.39535 -0.91074
vn -0.77904 -0.47992 -0.40346
vn -0.4504 -0.3357 -0.82731
vn 0.02634 -0.68674 -0.72643
vn -0.09835 -0.42877 -0.89805
vn -0.16662 -0.66383 -0.72909
vn -0.86492 -0.21422 0.4539
vn -0.74689 -0.40829 0.52484
vn -0.75751 -0.412 0.5064
vn -0.92185 -0.2028 0.33025
vn -0.89361 -0.41743 0.16498
vn -0.98746 -0.15785 -0.00059
vn -0.96781 -0.01444 0.25127
vn -0.48751 -0.7432 0.45824
vn -0.83941 -0.46097 0.2879
vn -0.73796 -0.45068 0.5023
vn -0.96093 -0.27677 0.00305
vn -0.98526 -0.10671 0.13367
vn -0.72757 -0.46082 -0.50821
vn -0.82944 -0.38065 -0.40882
vn -0.86917 -0.32795 -0.37012
vn -0.9175 -0.34711 -0.19417
vn -0.73166 -0.47508 -0.48885
vn -0.47593 -0.2973 -0.82771
vn 0.99925 0.03363 0.01929
vn 0.99754 0.07015 -0.0008
vn 0.96103 0.16027 0.22523
vn 0.97209 0.08406 0.21905
vn 0.97172 -0.06063 -0.22821
vn 0.99399 -0.06678 0.08673
vn 0.97879 -0.10175 -0.17783
vn 0.82109 0.15358 0.54975
vn 0.84675 0.14945 0.51057
vn 0.93973 0.1594 0.30249
vn 0.77417 0.12261 0.62099
vn 0.71542 0.16125 0.67983
vn 0.88764 0.15322 0.43431
vn 0.72146 0.19001 0.66587
vn 0.82625 -0.18031 0.53367
vn 0.77855 0.02285 0.62716
vn 0.89474 0.01814 0.44621
vn 0.71122 -0.00595 0.70295
vn 0.34722 0.29094 0.89151
vn 0.42283 0.21222 0.88101
vn 0.61232 0.19822 0.76536
vn 0.39525 0.07043 0.91587
vn 0.23308 0.26303 0.93621
vn 0.28413 0.05701 0.95709
vn 0.73439 0.10515 0.67053
vn 0.64238 0.15534 0.75048
vn 0.41674 0.09002 0.90456
vn 0.65917 0.26899 0.70224
vn 0.67693 0.10364 0.72871
vn 0.27586 -0.10978 0.95491
vn 0.42703 -0.06793 0.90168
vn 0.32264 -0.23534 0.9168
vn 0.56963 -0.17198 0.8037
vn 0.64006 -0.12022 0.75886
vn 0.96042 0.08595 0.26495
vn 0.97317 -0.10295 -0.20576
vn 0.99738 -0.05454 0.04747
vn 0.89618 -0.17554 -0.40749
vn 0.91057 -0.07166 -0.40709
vn 0.9887 -0.14982 -0.00603
vn 0.93766 -0.11551 -0.3278
vn 0.88722 -0.16694 -0.43009
vn 0.92794 -0.12945 -0.34952
vn 0.92255 0.06866 0.37971
vn 0.84503 -0.29344 -0.447
vn 0.65257 -0.25038 -0.71516
vn 0.75269 -0.21867 -0.621
vn 0.77021 -0.13433 -0.62349
vn 0.79742 -0.16523 -0.58036
vn 0.80181 -0.26256 -0.53681
vn 0.65733 -0.24144 -0.71388
vn 0.70177 -0.25421 -0.66551
vn 0.73242 -0.34913 -0.58453
vn 0.70327 -0.1206 -0.70062
vn 0.59651 -0.39886 -0.69648
vn 0.23848 -0.45664 -0.85709
vn 0.43655 -0.27988 -0.85504
vn 0.77192 -0.18895 -0.60699
vn 0.73387 -0.24923 -0.63192
vn 0.56327 -0.31856 -0.7624
vn 0.35983 -0.38487 -0.84994
vn 0.21805 -0.42195 -0.88001
vn 0.00708 0.20172 0.97942
vn -0.07641 0.35437 0.93198
vn 0.01782 0.35138 0.93606
vn -0.18218 0.32469 0.92811
vn -0.22647 0.33086 0.9161
vn -0.14071 0.27905 0.94991
vn 0.033 -0.01428 0.99935
vn -0.20933 0.02323 0.97757
vn -0.73853 0.0693 0.67065
vn -0.46479 0.20838 0.86055
vn -0.51923 0.24771 0.81795
vn -0.45723 0.08617 0.88516
vn -0.17756 0.19195 0.96521
vn -0.47704 0.2165 0.8518
vn -0.34595 0.18237 0.92036
vn -0.48411 0.11914 0.86686
vn -0.63985 0.14333 0.75502
vn -0.55184 -0.01622 0.83379
vn -0.8536 0.01259 0.52078
vn -0.90619 0.01931 0.42243
vn -0.78225 0.0397 0.62169
vn -0.70761 -0.45761 -0.53841
vn -0.66241 -0.54569 -0.51326
vn 0.0183 -0.45192 -0.89187
vn 0.02688 -0.48052 -0.87657
vn 0.11515 -0.32047 -0.94023
vn -0.08375 -0.38625 -0.91858
vn -0.21986 -0.46722 -0.85637
vn -0.11067 -0.21089 -0.97122
vn -0.00272 -0.44613 -0.89497
vn -0.10375 -0.49537 -0.86246
vn -0.31339 -0.40128 -0.86068
vn -0.40386 -0.44614 -0.79866
vn -0.42978 -0.41746 -0.80063
vn -0.43744 -0.2742 -0.85642
vn -0.29282 -0.43862 -0.84963
vn -0.49555 -0.42171 -0.75933
vn -0.32387 -0.28361 -0.90259
vn -0.47146 -0.38707 -0.7924
vn -0.72594 -0.36201 -0.58478
vn -0.88588 -0.00675 0.46386
vn -0.92055 -0.05625 0.38654
vn -0.8464 0.00374 0.53253
vn -0.92797 -0.05389 0.36873
vn -0.81992 0.03779 0.57123
vn -0.83584 -0.0215 0.54856
vn -0.7876 0.02392 0.61572
vn -0.95627 -0.10694 0.27224
vn -0.96997 -0.14957 0.19182
vn -0.94648 -0.11337 0.3022
vn -0.98504 -0.14977 0.08521
vn -0.9774 -0.19085 0.09095
vn -0.98609 -0.1659 0.00987
vn -0.96572 -0.23389 -0.11259
vn -0.95704 -0.22296 -0.1854
vn -0.92301 -0.26968 -0.27444
vn -0.91393 -0.25701 -0.31414
vn -0.97853 -0.14371 -0.14771
vn -0.97291 -0.22215 -0.06402
vn -0.97619 -0.14184 0.16411
vn -0.95806 -0.23141 -0.16902
vn -0.88396 -0.33135 -0.3299
vn -0.82771 -0.1994 -0.52454
vn -0.93148 -0.14882 -0.33195
vn -0.72702 -0.38682 -0.56728
vn -0.65853 -0.19493 -0.72687
vn 0.95799 -0.01108 0.28657
vn 0.9521 0.04755 0.30207
vn 0.93857 0.03906 0.34287
vn 0.94278 0.01885 0.33288
vn 0.96808 -0.0142 0.25024
vn 0.96093 -0.00211 0.27679
vn 0.97374 -0.03698 0.22462
vn 0.56681 0.32625 0.7565
vn 0.45326 0.57649 0.67986
vn 0.29566 0.5438 0.78541
vn 0.45812 0.16788 0.87289
vn 0.32586 0.24131 0.9141
vn 0.13958 0.19809 0.97019
vn 0.56025 0.20125 0.8035
vn 0.13829 0.31003 0.94061
vn 0.48345 0.23302 0.84379
vn 0.61544 0.18455 0.76627
vn 0.59829 0.14365 0.7883
vn 0.62892 0.10447 0.77042
vn 0.93398 0.07412 0.34954
vn 0.87065 0.32334 0.3707
vn 0.76216 0.4942 0.41819
vn 0.8422 0.27914 0.46128
vn 0.78214 0.20258 0.58926
vn 0.9724 0.23309 0.01079
vn 0.89944 0.35341 0.25712
vn 0.84205 0.24595 -0.48006
vn 0.98463 0.04797 -0.16792
vn 0.86584 0.50031 -0.00377
vn 0.93469 0.03947 0.35327
vn 0.81092 0.00934 0.58508
vn 0.98736 -0.04427 -0.15218
vn 0.89619 -0.20443 -0.39376
vn 0.59517 0.14737 0.78997
vn 0.66415 0.38786 0.63912
vn 0.8263 0.06106 -0.55992
vn 0.72262 0.2802 -0.63191
vn 0.7709 0.09555 -0.62975
vn 0.7252 0.14278 -0.67357
vn 0.69435 0.2844 -0.66105
vn 0.84506 -0.05909 -0.53139
vn 0.80038 -0.22657 -0.55502
vn 0.76866 -0.04491 -0.63808
vn 0.77815 -0.05019 -0.62607
vn 0.69316 0.39972 -0.59979
vn 0.63613 0.31573 -0.70403
vn 0.58608 0.26343 -0.76623
vn 0.39345 0.36544 -0.84359
vn 0.63622 0.12804 -0.76081
vn 0.52124 0.12861 -0.84367
vn 0.28625 0.12389 -0.95011
vn 0.25283 0.37489 -0.89193
vn 0.65262 -0.04017 -0.75662
vn 0.31033 -0.11049 -0.94419
vn 0.02881 0.14674 0.98876
vn 0.032 0.41441 0.90953
vn -0.08006 0.38873 0.91787
vn -0.13822 0.17794 0.97428
vn -0.15068 0.6249 0.76603
vn 0.00099 0.23035 0.97311
vn -0.14129 0.18981 0.9716
vn -0.27985 0.46417 0.84038
vn -0.5305 0.31378 0.78747
vn -0.53945 0.56645 0.62299
vn -0.30419 0.18383 0.93471
vn -0.61204 0.16845 0.77268
vn -0.50075 0.07248 0.86255
vn -0.18479 0.63237 0.75231
vn 0.00359 0.66674 0.74528
vn -0.32563 0.7155 0.61808
vn -0.16431 0.71723 -0.67719
vn 0.01525 0.64467 -0.76431
vn -0.17441 0.57529 -0.79914
vn -0.04581 0.4773 -0.87755
vn -0.32958 0.49977 -0.801
vn -0.0821 0.44938 -0.88956
vn -0.05553 0.32514 -0.94403
vn -0.02328 0.01639 -0.99959
vn -0.24106 0.04341 -0.96954
vn -0.34869 0.60995 -0.7116
vn -0.77973 0.21541 -0.5879
vn -0.62734 0.42508 -0.65249
vn -0.54217 0.22219 -0.81036
vn -0.19566 0.32138 -0.92652
vn -0.34105 0.36122 -0.86788
vn -0.16042 0.41241 -0.89676
vn -0.39204 0.15058 -0.90754
vn -0.52428 0.10847 -0.84461
vn -0.55707 -0.05748 -0.82847
vn -0.43634 -0.09399 -0.89486
vn -0.65494 0.57312 0.49253
vn -0.74575 0.37235 0.55247
vn -0.75524 0.22945 0.61398
vn -0.78572 0.08728 0.6124
vn -0.85115 0.36658 0.37572
vn -0.89465 0.21186 0.39334
vn -0.84434 0.16575 0.50952
vn -0.8018 0.55116 0.23093
vn -0.77538 0.58574 0.236
vn -0.80924 0.57724 0.10921
vn -0.9186 0.3476 0.18801
vn -0.98591 0.07863 0.14766
vn -0.97509 0.21816 0.03993
vn -0.85112 0.50987 -0.12501
vn -0.92809 0.29622 -0.22562
vn -0.76045 0.47522 -0.44258
vn -0.74091 0.65996 -0.12449
vn -0.98321 -0.06933 0.16882
vn -0.84766 0.06389 0.52668
vn -0.91275 0.02259 0.4079
vn -0.99906 -0.03624 -0.02393
vn -0.97356 -0.07644 -0.21528
vn -0.6613 0.51719 -0.54332
vn -0.70603 0.61543 -0.35038
vn -0.47662 0.41912 -0.77277
vn -0.81838 -0.09235 -0.56721
vn 0.19383 0.77737 0.59843
vn 0.72782 0.61502 0.30335
vn 0.62049 0.69849 0.35651
vn 0.84284 0.53813 -0.00623
vn 0.71247 0.62994 0.30914
vn 0.58633 0.8028 0.10827
vn 0.69711 0.6888 -0.19897
vn 0.49568 0.83009 -0.25546
vn 0.85245 0.40263 -0.3335
vn 0.55782 0.81574 0.15297
vn 0.16714 0.91141 0.37603
vn 0.02883 0.99631 0.08087
vn 0.00113 0.96427 0.26491
vn 0.10759 0.87719 0.46794
vn 0.39544 0.85458 -0.33662
vn 0.1818 0.84759 -0.49853
vn 0.16165 0.98577 0.04618
vn 0.3443 0.92145 0.17995
vn 0.18877 0.86045 0.47328
vn 0.44478 0.795 0.41248
vn 0.385 0.83996 0.38242
vn 0.44759 0.86336 0.23298
vn 0.58111 0.73785 0.34334
vn 0.78546 0.35342 -0.50807
vn 0.47957 0.63304 -0.60767
vn 0.26002 0.67635 -0.68916
vn 0.4921 0.56849 -0.65928
vn 0.26751 0.66826 -0.69417
vn 0.05859 0.70808 -0.7037
vn 0.40098 0.72345 -0.56199
vn 0.31806 0.70366 -0.63538
vn 0.20022 0.73518 -0.64763
vn 0.07213 0.75547 -0.6512
vn 0.48622 0.62008 -0.6157
vn -0.44032 0.77841 0.44743
vn -0.14359 0.91656 0.37322
vn -0.17378 0.96584 0.19223
vn -0.25224 0.92899 0.27084
vn -0.12592 0.98673 0.10252
vn -0.00307 0.94131 -0.33754
vn -0.08267 0.90354 0.42044
vn -0.1878 0.8889 0.41784
vn 0.07063 0.87162 0.48507
vn -0.3931 0.89928 0.19174
vn -0.39064 0.86962 0.30194
vn -0.19042 0.9351 -0.29888
vn -0.51436 0.82245 0.24291
vn -0.58849 0.78781 0.18179
vn -0.5813 0.79122 0.18989
vn -0.37911 0.84787 0.37065
vn -0.55252 0.8169 0.16551
vn -0.59938 0.79817 -0.0606
vn -0.60307 0.77695 0.1807
vn -0.4652 0.84871 -0.25157
vn -0.48835 0.73851 -0.4649
vn -0.02106 0.74131 -0.67083
vn -0.22973 0.74085 -0.63116
vn -0.24396 0.73848 -0.6286
vn -0.33101 0.726 -0.60279
vn -0.31533 0.65951 -0.68236
vn -0.57627 0.79559 0.18694
vn -0.67735 0.72298 0.13603
vn -0.6729 0.72483 0.14775
vn -0.65233 0.7505 -0.10593
vn -0.41704 0.59048 -0.69095
vn -0.59318 0.7201 -0.35999
vn -0.60732 0.68916 -0.39524
vn -0.14185 -0.51541 0.84512
vn 0.69413 -0.61818 -0.36883
vn 0.79565 -0.40844 -0.44735
vn 0.79562 -0.40843 -0.44741
vn 0.49165 -0.71918 -0.49098
vn 0.16021 -0.47366 0.86601
vn -0.67962 -0.4372 0.58904
vn 0.40796 -0.75528 -0.51295
vn 0.40795 -0.75528 -0.51296
vn -0.6249 -0.50942 -0.59161
vn -0.29447 -0.20742 -0.93288
vn -0.42019 -0.39142 0.81867
vn -0.41992 -0.39143 0.81881
vn 0.64901 0.22089 0.72801
vn -0.27178 0.37652 0.88565
vn -0.77581 0.03308 0.63009
vn -0.43554 -0.51357 -0.73929
vn -0.43555 -0.51356 -0.73929
vn -0.5527 -0.32004 -0.76948
vn -0.85142 0.03061 0.52359
vn -0.83794 0.0383 0.54441
vn 0.7107 0.41211 0.57016
vn 0.69707 0.39798 -0.59641
vn -0.21716 0.15424 0.96387
vn -0.51756 0.42546 -0.74237
vn -0.36162 0.52547 -0.77014
vn -0.54819 -0.07241 -0.83321
vn -0.54818 -0.07238 -0.83322
vn -0.82957 0.04291 0.55676
vn -0.83183 0.03268 0.55407
vn 0.58644 0.73489 0.34063
vn -0.37784 0.84863 0.37023
vt 0.83279 0.47101
vt 0.84572 0.52518
vt 0.81773 0.49902
vt 0.80326 0.48384
vt 0.80663 0.46522
vt 0.83623 0.41638
vt 0.83912 0.42898
vt 0.8301 0.41829
vt 0.85873 0.4723
vt 0.85463 0.51589
vt 0.84636 0.46468
vt 0.86539 0.48285
vt 0.85795 0.44902
vt 0.36212 0.20351
vt 0.35261 0.19719
vt 0.35539 0.18876
vt 0.3432 0.18209
vt 0.36191 0.18681
vt 0.34 0.15833
vt 0.34136 0.15251
vt 0.34508 0.15351
vt 0.8447 0.41814
vt 0.83941 0.4116
vt 0.354 0.17586
vt 0.83006 0.4099
vt 0.83197 0.41038
vt 0.15893 0.65688
vt 0.16317 0.65841
vt 0.16409 0.65485
vt 0.15749 0.66
vt 0.3433 0.14975
vt 0.8001 0.05024
vt 0.80107 0.05323
vt 0.79196 0.05393
vt 0.80427 0.05039
vt 0.79697 0.04886
vt 0.80605 0.05591
vt 0.80554 0.04712
vt 0.69287 0.61642
vt 0.72631 0.57545
vt 0.74468 0.6179
vt 0.6807 0.06721
vt 0.72423 0.05053
vt 0.71535 0.07123
vt 0.75037 0.08923
vt 0.83482 0.65958
vt 0.80684 0.59424
vt 0.82751 0.57327
vt 0.77249 0.56665
vt 0.84246 0.59891
vt 0.85032 0.55994
vt 0.80973 0.04972
vt 0.79845 0.09731
vt 0.82987 0.08532
vt 0.85254 0.08496
vt 0.84164 0.06245
vt 0.84025 0.02792
vt 0.87508 0.0707
vt 0.90158 0.10118
vt 0.83584 0.02357
vt 0.84064 0.02276
vt 0.84611 0.02479
vt 0.42855 0.29426
vt 0.42461 0.28717
vt 0.43045 0.28899
vt 0.47099 0.30794
vt 0.46042 0.28463
vt 0.46326 0.23489
vt 0.4977 0.29463
vt 0.43376 0.2474
vt 0.42407 0.27946
vt 0.41189 0.23837
vt 0.87509 0.617
vt 0.84488 0.66
vt 0.86002 0.54646
vt 0.87133 0.59138
vt 0.88025 0.61443
vt 0.88244 0.60569
vt 0.42024 0.28268
vt 0.42274 0.2883
vt 0.19307 0.07254
vt 0.21028 0.08669
vt 0.21417 0.08093
vt 0.20861 0.06368
vt 0.23448 0.07842
vt 0.68536 0.53494
vt 0.73274 0.54115
vt 0.76645 0.52046
vt 0.75068 0.4758
vt 0.27831 0.13031
vt 0.282 0.13059
vt 0.27567 0.11862
vt 0.23035 0.09409
vt 0.67333 0.49956
vt 0.68377 0.427
vt 0.71057 0.47723
vt 0.76016 0.40964
vt 0.76653 0.40441
vt 0.76384 0.40362
vt 0.26466 0.05094
vt 0.29687 0.09963
vt 0.30076 0.05852
vt 0.4642 0.20293
vt 0.42788 0.18261
vt 0.41707 0.18175
vt 0.39245 0.23753
vt 0.39415 0.2095
vt 0.38402 0.16509
vt 0.41316 0.16839
vt 0.18342 0.57566
vt 0.14007 0.57477
vt 0.1569 0.61265
vt 0.20459 0.61021
vt 0.4178 0.14916
vt 0.41458 0.09538
vt 0.43695 0.10557
vt 0.41056 0.15618
vt 0.38485 0.13444
vt 0.40992 0.09803
vt 0.1582 0.64684
vt 0.37046 0.15253
vt 0.12644 0.61219
vt 0.14703 0.62959
vt 0.41645 0.16916
vt 0.41934 0.16508
vt 0.41512 0.16455
vt 0.27392 0.56274
vt 0.27254 0.56549
vt 0.28112 0.56225
vt 0.26585 0.5658
vt 0.2089 0.60948
vt 0.19921 0.56906
vt 0.26766 0.56027
vt 0.76621 0.40217
vt 0.20825 0.61059
vt 0.2103 0.61006
vt 0.18734 0.56678
vt 0.20252 0.56091
vt 0.12606 0.5689
vt 0.13501 0.57068
vt 0.13504 0.56748
vt 0.1408 0.56996
vt 0.13223 0.57375
vt 0.15482 0.6566
vt 0.82825 0.13069
vt 0.83032 0.13747
vt 0.82457 0.13553
vt 0.82191 0.13016
vt 0.83436 0.13084
vt 0.82618 0.12568
vt 0.83232 0.12663
vt 0.74394 0.20303
vt 0.75738 0.16315
vt 0.77318 0.166
vt 0.75127 0.1534
vt 0.74316 0.16379
vt 0.7687 0.15189
vt 0.70345 0.13591
vt 0.77575 0.09698
vt 0.75801 0.10763
vt 0.78216 0.11115
vt 0.69767 0.11727
vt 0.09515 0.13328
vt 0.08835 0.08928
vt 0.07984 0.12735
vt 0.10744 0.08123
vt 0.13729 0.11017
vt 0.14479 0.10093
vt 0.74107 0.21132
vt 0.73093 0.20779
vt 0.08889 0.07212
vt 0.67333 0.14001
vt 0.67824 0.12348
vt 0.14775 0.08587
vt 0.09613 0.06521
vt 0.14176 0.0456
vt 0.11217 0.03409
vt 0.68016 0.11262
vt 0.82592 0.18953
vt 0.88803 0.1708
vt 0.8476 0.1913
vt 0.89785 0.16959
vt 0.89547 0.16411
vt 0.87 0.20512
vt 0.87097 0.11759
vt 0.90856 0.10722
vt 0.90503 0.13242
vt 0.74906 0.21051
vt 0.91131 0.10262
vt 0.50158 0.29165
vt 0.50184 0.29639
vt 0.9141 0.10777
vt 0.90143 0.1654
vt 0.90685 0.17084
vt 0.54788 0.28447
vt 0.54591 0.2791
vt 0.55186 0.28007
vt 0.52191 0.29188
vt 0.53767 0.22181
vt 0.51699 0.17884
vt 0.554 0.19345
vt 0.57874 0.26547
vt 0.56247 0.23661
vt 0.51452 0.23028
vt 0.47862 0.22769
vt 0.50301 0.18318
vt 0.15482 0.1111
vt 0.15798 0.14096
vt 0.13592 0.15609
vt 0.16648 0.16763
vt 0.20094 0.15431
vt 0.16105 0.17977
vt 0.16043 0.10324
vt 0.21752 0.14138
vt 0.22884 0.1523
vt 0.2207 0.1527
vt 0.23012 0.21657
vt 0.22224 0.14708
vt 0.21583 0.14562
vt 0.23012 0.21663
vt 0.23012 0.21664
vt 0.23013 0.21664
vt 0.23014 0.21663
vt 0.22801 0.14246
vt 0.27965 0.51077
vt 0.27822 0.55556
vt 0.32486 0.5083
vt 0.08024 0.54405
vt 0.06252 0.55733
vt 0.50212 0.16013
vt 0.51573 0.1431
vt 0.54135 0.14979
vt 0.52762 0.11844
vt 0.50194 0.10789
vt 0.53827 0.11318
vt 0.48776 0.15984
vt 0.45671 0.14399
vt 0.47213 0.11158
vt 0.48659 0.0835
vt 0.48095 0.05005
vt 0.5083 0.0513
vt 0.4832 0.10636
vt 0.46931 0.0899
vt 0.52264 0.09021
vt 0.04676 0.51994
vt 0.0754 0.52067
vt 0.25184 0.44553
vt 0.24185 0.47561
vt 0.30429 0.45686
vt 0.2516 0.50039
vt 0.30429 0.45688
vt 0.2828 0.13404
vt 0.27863 0.13883
vt 0.24556 0.52331
vt 0.18955 0.51076
vt 0.19305 0.46218
vt 0.18196 0.4623
vt 0.1785 0.4883
vt 0.16938 0.51806
vt 0.15133 0.50954
vt 0.12755 0.48792
vt 0.11867 0.50404
vt 0.10947 0.4872
vt 0.13217 0.44071
vt 0.16699 0.53021
vt 0.18273 0.52264
vt 0.15586 0.52444
vt 0.10884 0.53249
vt 0.06226 0.46839
vt 0.13039 0.44109
vt 0.05244 0.49542
vt 0.02433 0.47015
vt 0.83438 0.23707
vt 0.8344 0.24307
vt 0.83009 0.24061
vt 0.8293 0.23691
vt 0.84107 0.23785
vt 0.83209 0.23307
vt 0.83677 0.23247
vt 0.00667 0.17233
vt 0.01271 0.22006
vt 0.05143 0.22068
vt 0.06012 0.17384
vt 0.05794 0.20681
vt 0.0866 0.18682
vt 0.00971 0.16973
vt 0.09915 0.15526
vt 0.08054 0.14137
vt 0.03149 0.13168
vt 0.02577 0.13641
vt 0.73555 0.21514
vt 0.77152 0.2496
vt 0.79768 0.28794
vt 0.77037 0.29672
vt 0.73989 0.26241
vt 0.73271 0.25731
vt 0.8473 0.27683
vt 0.81493 0.28922
vt 0.87722 0.2736
vt 0.87124 0.25189
vt 0.83463 0.31618
vt 0.78089 0.2232
vt 0.74302 0.2138
vt 0.87961 0.23099
vt 0.90124 0.20868
vt 0.72667 0.25618
vt 0.72982 0.26011
vt 0.90237 0.2543
vt 0.89889 0.27514
vt 0.61826 0.26252
vt 0.60158 0.22312
vt 0.63183 0.24657
vt 0.91317 0.22527
vt 0.92826 0.20467
vt 0.59806 0.22478
vt 0.59658 0.27151
vt 0.65987 0.23828
vt 0.63819 0.20195
vt 0.60279 0.21518
vt 0.63252 0.16818
vt 0.5991 0.21836
vt 0.59775 0.21184
vt 0.58726 0.15031
vt 0.60313 0.1497
vt 0.59636 0.21869
vt 0.56833 0.1663
vt 0.11953 0.21893
vt 0.07678 0.22569
vt 0.12685 0.24613
vt 0.14979 0.23686
vt 0.11613 0.27861
vt 0.13072 0.19871
vt 0.16351 0.21849
vt 0.16242 0.27203
vt 0.19801 0.27749
vt 0.18991 0.30156
vt 0.19537 0.25065
vt 0.21469 0.26369
vt 0.23012 0.21665
vt 0.11368 0.28711
vt 0.10244 0.2786
vt 0.13476 0.29368
vt 0.61172 0.55091
vt 0.61293 0.54934
vt 0.6132 0.55082
vt 0.61434 0.55002
vt 0.61439 0.55186
vt 0.61 0.09531
vt 0.58651 0.12695
vt 0.57343 0.12678
vt 0.55884 0.07762
vt 0.61075 0.55451
vt 0.05731 0.42023
vt 0.05875 0.41855
vt 0.05632 0.42025
vt 0.5674 0.07373
vt 0.56746 0.05684
vt 0.60931 0.09405
vt 0.5586 0.06053
vt 0.54004 0.01551
vt 0.00333 0.83669
vt 0.00385 0.83719
vt 0.00397 0.83667
vt 0.54113 0.06084
vt 0.20301 0.31846
vt 0.21681 0.3107
vt 0.22631 0.28201
vt 0.23459 0.2696
vt 0.25837 0.3757
vt 0.23703 0.40378
vt 0.2798 0.40231
vt 0.22697 0.36956
vt 0.25496 0.36179
vt 0.18758 0.37022
vt 0.19985 0.39192
vt 0.19461 0.41665
vt 0.14135 0.39758
vt 0.14062 0.39583
vt 0.13944 0.39725
vt 0.13725 0.3944
vt 0.15734 0.36126
vt 0.18802 0.45299
vt 0.27715 0.4181
vt 0.2348 0.42466
vt 0.13384 0.4395
vt 0.13181 0.43986
vt 0.10365 0.37038
vt 0.11839 0.36541
vt 0.09395 0.36942
vt 0.05712 0.42075
vt 0.04665 0.25059
vt 0.80306 0.29912
vt 0.79605 0.32667
vt 0.83476 0.31654
vt 0.8344 0.31656
vt 0.49148 0.35913
vt 0.49187 0.35904
vt 0.49176 0.35941
vt 0.83506 0.31633
vt 0.48791 0.36455
vt 0.44877 0.43772
vt 0.44534 0.49969
vt 0.43583 0.49965
vt 0.42268 0.49255
vt 0.47804 0.447
vt 0.4814 0.46137
vt 0.47215 0.46128
vt 0.45562 0.4256
vt 0.36866 0.44492
vt 0.37591 0.39008
vt 0.44565 0.41765
vt 0.45246 0.41741
vt 0.45194 0.4054
vt 0.49221 0.3589
vt 0.49223 0.3592
vt 0.4922 0.35955
vt 0.49286 0.3593
vt 0.49118 0.45456
vt 0.4939 0.46882
vt 0.17 0.93168
vt 0.17102 0.83667
vt 0.2497 0.91348
vt 0.57089 0.43637
vt 0.61553 0.44889
vt 0.56891 0.46671
vt 0.58605 0.40582
vt 0.18785 0.3162
vt 0.4299 0.50798
vt 0.44101 0.5085
vt 0.43836 0.54707
vt 0.45369 0.51532
vt 0.47524 0.48784
vt 0.37809 0.52367
vt 0.34177 0.53856
vt 0.34 0.52178
vt 0.44454 0.58059
vt 0.43203 0.58228
vt 0.47756 0.54731
vt 0.41554 0.60384
vt 0.39021 0.64192
vt 0.36775 0.63045
vt 0.15827 0.32667
vt 0.44345 0.6028
vt 0.47717 0.63531
vt 0.45788 0.65175
vt 0.47964 0.59907
vt 0.51815 0.64015
vt 0.5153 0.5392
vt 0.51195 0.56733
vt 0.54454 0.63799
vt 0.5447 0.64951
vt 0.56046 0.64444
vt 0.37112 0.64696
vt 0.23754 0.35719
vt 0.17974 0.35409
vt 0.16038 0.34321
vt 0.5505 0.66
vt 0.53227 0.65915
vt 0.10689 0.36405
vt 0.29424 0.05081
vt 0.26366 0.03791
vt 0.8527 0.03053
vt 0.49707 0.30014
vt 0.90955 0.06184
vt 0.38172 0.24537
vt 0.17972 0.03929
vt 0.68059 0.41264
vt 0.88731 0.53504
vt 0.36799 0.22535
vt 0.06764 0.58938
vt 0.35092 0.14329
vt 0.30579 0.06306
vt 0.20835 0.61105
vt 0.6771 0.17973
vt 0.03808 0.73226
vt 0.0089 0.67
vt 0.03809 0.73232
vt 0.50868 0.75477
vt 0.50869 0.75484
vt 0.50745 0.67163
vt 0.02732 0.50231
vt 0.45806 0.06384
vt 0.44058 0.08193
vt 0.16333 0.87331
vt 0.16333 0.8733
vt 0.12933 0.91683
vt 0.72547 0.30073
vt 0.66 0.2386
vt 0.03809 0.73234
vt 0.03808 0.73232
vt 0.00333 0.76634
vt 0.01945 0.40714
vt 0.65203 0.61013
vt 0.53933 0.01492
vt 0.00667 0.43937
vt 0.16333 0.87328
vt 0.12948 0.86197
vt 0.3043 0.45685
vt 0.42286 0.35472
vt 0.34463 0.56391
usemtl mat0
f 1/1/1 2/2/2 3/3/3
f 1/1/1 3/3/3 4/4/4
f 4/4/4 5/5/5 1/1/1
f 6/6/6 7/7/7 8/8/8
f 9/9/9 10/10/10 11/11/11
f 12/12/12 10/10/10 9/9/9
f 13/13/13 9/9/9 11/11/11
f 14/14/14 15/15/15 16/16/16
f 16/16/16 15/15/15 17/17/17
f 14/14/14 16/16/16 18/18/18
f 19/19/19 20/20/20 21/21/21
f 1/1/1 7/7/7 11/11/11
f 6/6/6 22/22/22 7/7/7
f 6/6/6 23/23/23 22/22/22
f 24/24/24 16/16/16 17/17/17
f 16/16/16 24/24/24 18/18/18
f 25/25/25 26/26/26 8/8/8
f 6/6/6 8/8/8 26/26/26
f 6/6/6 26/26/26 23/23/23
f 27/27/27 28/28/28 29/29/29
f 27/27/27 30/30/30 28/28/28
f 31/31/31 21/21/21 20/20/20
f 32/32/32 33/33/33 34/34/34
f 35/35/35 33/33/33 32/32/32
f 34/34/34 36/36/36 32/32/32
f 37/37/37 33/33/33 35/35/35
f 35/35/35 32/32/32 38/38/38
f 32/32/32 36/36/36 38/38/38
f 39/39/39 40/40/40 41/41/41
f 42/42/42 43/43/43 44/44/44
f 34/34/34 45/45/45 44/44/44
f 46/46/46 41/41/41 47/47/47
f 48/48/48 47/47/47 49/49/49
f 48/48/48 50/50/50 47/47/47
f 48/48/48 51/51/51 50/50/50
f 35/35/35 52/52/52 37/37/37
f 53/53/53 37/37/37 54/54/54
f 55/55/55 54/54/54 56/56/56
f 56/56/56 52/52/52 57/57/57
f 55/55/55 56/56/56 58/58/58
f 55/55/55 58/58/58 59/59/59
f 35/35/35 38/38/38 52/52/52
f 57/57/57 60/60/60 61/61/61
f 61/61/61 62/62/62 57/57/57
f 63/63/63 64/64/64 65/65/65
f 66/66/66 65/65/65 67/67/67
f 68/68/68 69/69/69 67/67/67
f 68/68/68 67/67/67 70/70/70
f 71/71/71 72/72/72 70/70/70
f 50/50/50 73/73/73 74/74/74
f 51/51/51 75/75/75 76/76/76
f 77/77/77 73/73/73 76/76/76
f 78/78/78 77/77/77 76/76/76
f 79/79/79 64/64/64 80/80/80
f 64/64/64 79/79/79 71/71/71
f 71/71/71 65/65/65 64/64/64
f 81/81/81 82/82/82 83/83/83
f 84/84/84 81/81/81 83/83/83
f 85/85/85 84/84/84 83/83/83
f 86/86/86 87/87/87 40/40/40
f 49/49/49 40/40/40 87/87/87
f 3/3/3 88/88/88 4/4/4
f 88/88/88 89/89/89 4/4/4
f 49/49/49 87/87/87 88/88/88
f 90/90/90 91/91/91 92/92/92
f 82/82/82 93/93/93 83/83/83
f 83/83/83 93/93/93 85/85/85
f 94/94/94 95/95/95 96/96/96
f 96/96/96 95/95/95 97/97/97
f 98/98/98 97/97/97 99/99/99
f 4/4/4 89/89/89 5/5/5
f 89/89/89 96/96/96 97/97/97
f 100/100/100 101/101/101 102/102/102
f 103/103/103 68/68/68 104/104/104
f 72/72/72 105/105/105 70/70/70
f 2/2/2 75/75/75 51/51/51
f 75/75/75 2/2/2 10/10/10
f 106/106/106 107/107/107 72/72/72
f 18/18/18 108/108/108 107/107/107
f 107/107/107 108/108/108 109/109/109
f 110/110/110 111/111/111 112/112/112
f 113/113/113 110/110/110 112/112/112
f 114/114/114 115/115/115 116/116/116
f 117/117/117 118/118/118 119/119/119
f 112/112/112 120/120/120 113/113/113
f 24/24/24 21/21/21 121/121/121
f 122/122/122 123/123/123 112/112/112
f 108/108/108 121/121/121 118/118/118
f 105/105/105 124/124/124 104/104/104
f 104/104/104 124/124/124 125/125/125
f 124/124/124 126/126/126 125/125/125
f 105/105/105 109/109/109 124/124/124
f 109/109/109 126/126/126 124/124/124
f 114/114/114 126/126/126 117/117/117
f 125/125/125 126/126/126 114/114/114
f 117/117/117 126/126/126 109/109/109
f 127/127/127 128/128/128 129/129/129
f 127/127/127 130/130/130 128/128/128
f 131/131/131 130/130/130 132/132/132
f 127/127/127 133/133/133 130/130/130
f 134/134/134 98/98/98 99/99/99
f 135/135/135 136/136/136 131/131/131
f 137/137/137 132/132/132 138/138/138
f 137/137/137 110/110/110 132/132/132
f 139/139/139 140/140/140 141/141/141
f 142/142/142 140/140/140 111/111/111
f 111/111/111 140/140/140 143/143/143
f 143/143/143 140/140/140 139/139/139
f 142/142/142 141/141/141 140/140/140
f 120/120/120 144/144/144 27/27/27
f 135/135/135 131/131/131 113/113/113
f 120/120/120 27/27/27 29/29/29
f 145/145/145 146/146/146 147/147/147
f 145/145/145 147/147/147 148/148/148
f 149/149/149 146/146/146 145/145/145
f 148/148/148 150/150/150 145/145/145
f 145/145/145 150/150/150 151/151/151
f 145/145/145 151/151/151 149/149/149
f 152/152/152 153/153/153 154/154/154
f 155/155/155 153/153/153 156/156/156
f 157/157/157 153/153/153 155/155/155
f 156/156/156 158/158/158 155/155/155
f 154/154/154 153/153/153 157/157/157
f 156/156/156 153/153/153 152/152/152
f 159/159/159 160/160/160 45/45/45
f 161/161/161 160/160/160 159/159/159
f 160/160/160 162/162/162 45/45/45
f 159/159/159 53/53/53 161/161/161
f 163/163/163 164/164/164 165/165/165
f 166/166/166 167/167/167 168/168/168
f 169/169/169 170/170/170 152/152/152
f 171/171/171 164/164/164 166/166/166
f 158/158/158 172/172/172 173/173/173
f 168/168/168 174/174/174 166/166/166
f 175/175/175 176/176/176 177/177/177
f 171/171/171 166/166/166 175/175/175
f 173/173/173 178/178/178 162/162/162
f 162/162/162 158/158/158 173/173/173
f 179/179/179 154/154/154 147/147/147
f 146/146/146 180/180/180 181/181/181
f 182/182/182 180/180/180 183/183/183
f 180/180/180 184/184/184 181/181/181
f 157/157/157 161/161/161 148/148/148
f 150/150/150 53/53/53 54/54/54
f 151/151/151 185/185/185 149/149/149
f 59/59/59 186/186/186 185/185/185
f 185/185/185 186/186/186 187/187/187
f 188/188/188 169/169/169 152/152/152
f 189/189/189 186/186/186 59/59/59
f 190/190/190 191/191/191 69/69/69
f 192/192/192 187/187/187 186/186/186
f 183/183/183 193/193/193 182/182/182
f 182/182/182 193/193/193 194/194/194
f 195/195/195 196/196/196 197/197/197
f 183/183/183 187/187/187 193/193/193
f 198/198/198 196/196/196 195/195/195
f 199/199/199 200/200/200 201/201/201
f 202/202/202 197/197/197 203/203/203
f 203/203/203 199/199/199 201/201/201
f 199/199/199 196/196/196 204/204/204
f 204/204/204 205/205/205 206/206/206
f 205/205/205 204/204/204 190/190/190
f 167/167/167 207/207/207 168/168/168
f 208/208/208 207/207/207 167/167/167
f 208/208/208 209/209/209 210/210/210
f 208/208/208 210/210/210 211/211/211
f 210/210/210 209/209/209 212/212/212
f 81/81/81 176/176/176 174/174/174
f 213/213/213 174/174/174 168/168/168
f 207/207/207 213/213/213 168/168/168
f 213/213/213 214/214/214 82/82/82
f 215/215/215 216/216/216 217/217/217
f 211/211/211 217/217/217 216/216/216
f 218/218/218 219/219/219 216/216/216
f 216/216/216 219/219/219 211/211/211
f 218/218/218 216/216/216 215/215/215
f 220/220/220 221/221/221 222/222/222
f 223/223/223 220/220/220 222/222/222
f 223/223/223 217/217/217 220/220/220
f 214/214/214 219/219/219 218/218/218
f 224/224/224 218/218/218 215/215/215
f 218/218/218 224/224/224 214/214/214
f 224/224/224 90/90/90 93/93/93
f 225/225/225 226/226/226 227/227/227
f 103/103/103 205/205/205 68/68/68
f 139/139/139 228/228/228 229/229/229
f 206/206/206 230/230/230 200/200/200
f 200/200/200 230/230/230 231/231/231
f 232/232/232 231/231/231 233/233/233
f 233/233/233 231/231/231 234/234/234
f 232/232/232 233/233/233 235/235/235
f 206/206/206 236/236/236 230/230/230
f 103/103/103 237/237/237 236/236/236
f 237/237/237 238/238/238 236/236/236
f 239/239/239 240/240/240 241/241/241
f 239/239/239 242/242/242 243/243/243
f 234/234/234 242/242/242 239/239/239
f 244/244/244 233/233/233 234/234/234
f 233/233/233 244/244/244 235/235/235
f 243/243/243 242/242/242 238/238/238
f 245/245/245 228/228/228 246/246/246
f 237/237/237 116/116/116 238/238/238
f 247/247/247 248/248/248 249/249/249
f 250/250/250 225/225/225 251/251/251
f 252/252/252 90/90/90 253/253/253
f 127/127/127 226/226/226 133/133/133
f 254/254/254 225/225/225 250/250/250
f 133/133/133 254/254/254 138/138/138
f 248/248/248 255/255/255 250/250/250
f 256/256/256 248/248/248 247/247/247
f 256/256/256 257/257/257 258/258/258
f 258/258/258 259/259/259 255/255/255
f 260/260/260 261/261/261 262/262/262
f 258/258/258 260/260/260 259/259/259
f 262/262/262 261/261/261 263/263/263
f 257/257/257 264/264/264 261/261/261
f 265/265/265 142/142/142 137/137/137
f 254/254/254 266/266/266 138/138/138
f 266/266/266 255/255/255 259/259/259
f 259/259/259 265/265/265 266/266/266
f 141/141/141 267/267/267 268/268/268
f 267/267/267 265/265/265 259/259/259
f 259/259/259 260/260/260 267/267/267
f 269/269/269 263/263/263 270/270/270
f 269/269/269 271/271/271 263/263/263
f 269/269/269 272/272/272 271/271/271
f 228/228/228 268/268/268 246/246/246
f 268/268/268 262/262/262 246/246/246
f 273/273/273 274/274/274 275/275/275
f 273/273/273 275/275/275 276/276/276
f 277/277/277 274/274/274 273/273/273
f 276/276/276 278/278/278 273/273/273
f 273/273/273 278/278/278 279/279/279
f 273/273/273 279/279/279 277/277/277
f 280/280/280 281/281/281 282/282/282
f 283/283/283 284/284/284 285/285/285
f 283/283/283 286/286/286 284/284/284
f 287/287/287 163/163/163 288/288/288
f 288/288/288 163/163/163 165/165/165
f 288/288/288 165/165/165 289/289/289
f 283/283/283 290/290/290 286/286/286
f 170/170/170 169/169/169 291/291/291
f 275/275/275 292/292/292 276/276/276
f 293/293/293 294/294/294 295/295/295
f 295/295/295 296/296/296 292/292/292
f 274/274/274 297/297/297 298/298/298
f 299/299/299 297/297/297 300/300/300
f 297/297/297 301/301/301 298/298/298
f 302/302/302 278/278/278 276/276/276
f 292/292/292 302/302/302 276/276/276
f 302/302/302 303/303/303 188/188/188
f 181/181/181 184/184/184 279/279/279
f 304/304/304 300/300/300 277/277/277
f 184/184/184 305/305/305 304/304/304
f 306/306/306 296/296/296 307/307/307
f 307/307/307 296/296/296 295/295/295
f 303/303/303 169/169/169 188/188/188
f 291/291/291 169/169/169 303/303/303
f 300/300/300 308/308/308 299/299/299
f 299/299/299 308/308/308 309/309/309
f 310/310/310 311/311/311 312/312/312
f 304/304/304 305/305/305 313/313/313
f 305/305/305 314/314/314 313/313/313
f 202/202/202 315/315/315 316/316/316
f 317/317/317 312/312/312 318/318/318
f 318/318/318 319/319/319 320/320/320
f 319/319/319 311/311/311 321/321/321
f 321/321/321 322/322/322 319/319/319
f 323/323/323 324/324/324 322/322/322
f 321/321/321 311/311/311 315/315/315
f 321/321/321 325/325/325 322/322/322
f 321/321/321 315/315/315 325/325/325
f 203/203/203 201/201/201 325/325/325
f 322/322/322 326/326/326 323/323/323
f 327/327/327 328/328/328 329/329/329
f 329/329/329 330/330/330 327/327/327
f 282/282/282 328/328/328 284/284/284
f 329/329/329 328/328/328 331/331/331
f 209/209/209 163/163/163 287/287/287
f 285/285/285 332/332/332 287/287/287
f 332/332/332 333/333/333 212/212/212
f 285/285/285 327/327/327 332/332/332
f 329/329/329 334/334/334 330/330/330
f 334/334/334 329/329/329 331/331/331
f 335/335/335 334/334/334 336/336/336
f 337/337/337 335/335/335 338/338/338
f 339/339/339 337/337/337 338/338/338
f 212/212/212 333/333/333 221/221/221
f 333/333/333 330/330/330 337/337/337
f 221/221/221 339/339/339 222/222/222
f 340/340/340 331/331/331 341/341/341
f 340/340/340 342/342/342 331/331/331
f 343/343/343 344/344/344 345/345/345
f 344/344/344 346/346/346 345/345/345
f 346/346/346 347/347/347 345/345/345
f 348/348/348 324/324/324 349/349/349
f 323/323/323 349/349/349 324/324/324
f 326/326/326 201/201/201 232/232/232
f 326/326/326 350/350/350 323/323/323
f 235/235/235 351/351/351 350/350/350
f 350/350/350 349/349/349 323/323/323
f 343/343/343 345/345/345 352/352/352
f 352/352/352 345/345/345 347/347/347
f 353/353/353 354/354/354 355/355/355
f 356/356/356 357/357/357 358/358/358
f 357/357/357 359/359/359 360/360/360
f 359/359/359 357/357/357 356/356/356
f 361/361/361 362/362/361 363/363/361
f 244/244/244 241/241/241 364/364/362
f 359/359/359 364/364/362 360/360/360
f 351/351/351 364/364/362 359/359/359
f 359/359/359 356/356/356 351/351/351
f 365/365/363 366/366/364 336/336/336
f 367/367/365 338/338/338 335/335/335
f 368/368/366 339/339/339 338/338/338
f 368/368/366 338/338/338 367/367/365
f 369/369/367 370/370/368 371/371/369
f 372/372/370 369/369/367 373/373/371
f 372/372/370 374/374/372 375/375/373
f 375/375/373 376/376/374 370/370/368
f 377/377/375 378/378/376 379/379/377
f 375/375/373 377/377/375 376/376/374
f 379/379/377 378/378/376 380/380/378
f 374/374/372 381/381/379 378/378/376
f 382/382/380 257/257/257 256/256/256
f 383/383/381 384/384/382 247/247/247
f 384/384/382 370/370/368 376/376/374
f 376/376/374 382/382/380 384/384/382
f 264/264/264 385/385/383 386/386/384
f 385/385/383 382/382/380 376/376/374
f 264/264/264 386/386/384 270/270/270
f 376/376/374 377/377/375 385/385/383
f 387/387/385 380/380/378 388/388/386
f 387/387/385 354/354/354 380/380/378
f 387/387/385 389/389/387 354/354/354
f 390/390/388 272/272/272 269/269/269
f 386/386/384 379/379/377 353/353/353
f 390/390/388 269/269/269 270/270/270
f 281/281/281 391/391/389 282/282/282
f 392/392/390 293/293/293 298/298/298
f 392/392/390 294/294/294 293/293/293
f 392/392/390 393/393/391 294/294/294
f 394/394/392 395/395/393 301/301/301
f 396/396/394 397/397/395 398/398/396
f 301/301/301 399/399/397 394/394/392
f 398/398/396 400/400/398 396/396/394
f 401/401/399 402/402/400 403/403/401
f 401/401/399 403/403/401 404/404/402
f 405/405/403 406/406/404 407/407/405
f 408/408/406 405/405/403 407/407/405
f 409/409/407 410/410/408 411/411/409
f 401/401/399 411/411/409 412/412/410
f 413/413/411 412/412/410 411/411/409
f 408/408/406 401/401/399 412/412/410
f 413/413/411 400/400/398 412/412/410
f 408/408/406 412/412/410 400/400/398
f 397/397/395 414/414/412 415/415/413
f 397/397/395 415/415/413 398/398/396
f 398/398/396 415/415/413 416/416/414
f 414/414/412 417/417/415 415/415/413
f 417/417/415 416/416/414 415/415/413
f 418/418/416 406/406/404 405/405/403
f 406/406/404 418/418/416 419/419/417
f 420/420/418 421/421/418 422/422/418
f 423/423/419 424/424/420 425/425/421
f 426/426/422 424/424/420 423/423/419
f 282/282/282 391/391/389 341/341/341
f 342/342/342 427/427/423 336/336/336
f 403/403/401 428/428/424 404/404/402
f 429/429/425 428/428/424 403/403/401
f 403/403/401 402/402/400 429/429/425
f 429/429/425 430/430/426 428/428/424
f 429/429/425 402/402/400 431/431/427
f 429/429/425 431/431/427 430/430/426
f 407/407/405 406/406/404 432/432/428
f 428/428/424 433/433/429 404/404/402
f 433/433/429 428/428/424 430/430/426
f 433/433/429 434/434/430 435/435/431
f 430/430/426 436/436/432 437/437/433
f 438/438/434 431/431/427 432/432/428
f 439/439/435 440/440/436 441/441/437
f 427/427/423 342/342/342 442/442/438
f 437/437/433 443/443/439 439/439/435
f 444/444/440 445/445/441 443/443/439
f 437/437/433 436/436/432 443/443/439
f 446/446/442 436/436/432 438/438/434
f 446/446/442 447/447/443 444/444/440
f 432/432/428 406/406/404 419/419/417
f 425/425/421 424/424/420 344/344/344
f 419/419/417 425/425/421 448/448/444
f 438/438/434 448/448/444 449/449/445
f 343/343/343 449/449/445 448/448/444
f 449/449/445 446/446/442 438/438/434
f 450/450/446 451/451/447 447/447/443
f 450/450/446 452/452/448 451/451/447
f 352/352/352 452/452/448 450/450/446
f 336/336/336 427/427/423 365/365/363
f 441/441/437 440/440/436 453/453/449
f 454/454/450 372/372/370 373/373/371
f 374/374/372 455/455/451 381/381/379
f 456/456/452 381/381/379 455/455/451
f 451/451/447 452/452/448 457/457/453
f 447/447/443 451/451/447 458/458/454
f 459/459/455 387/387/385 388/388/386
f 5/5/5 8/8/8 1/1/1
f 102/102/102 460/460/456 461/461/456
f 10/10/10 2/2/2 11/11/11
f 2/2/2 1/1/1 11/11/11
f 17/17/17 19/19/19 24/24/24
f 19/19/19 21/21/21 24/24/24
f 11/11/11 7/7/7 13/13/13
f 7/7/7 22/22/22 13/13/13
f 33/33/33 37/37/37 159/159/159
f 37/37/37 53/53/53 159/159/159
f 159/159/159 45/45/45 33/33/33
f 45/45/45 34/34/34 33/33/33
f 43/43/43 36/36/36 44/44/44
f 36/36/36 34/34/34 44/44/44
f 40/40/40 49/49/49 41/41/41
f 49/49/49 47/47/47 41/41/41
f 46/46/46 47/47/47 74/74/74
f 47/47/47 50/50/50 74/74/74
f 52/52/52 56/56/56 37/37/37
f 56/56/56 54/54/54 37/37/37
f 462/462/457 58/58/58 57/57/57
f 58/58/58 56/56/56 57/57/57
f 38/38/38 60/60/60 52/52/52
f 60/60/60 57/57/57 52/52/52
f 69/69/69 463/463/458 67/67/67
f 59/59/59 58/58/58 464/464/459
f 71/71/71 70/70/70 65/65/65
f 70/70/70 67/67/67 65/65/65
f 51/51/51 76/76/76 50/50/50
f 76/76/76 73/73/73 50/50/50
f 76/76/76 75/75/75 78/78/78
f 465/465/460 106/106/106 79/79/79
f 106/106/106 72/72/72 79/79/79
f 72/72/72 71/71/71 79/79/79
f 466/466/461 176/176/176 84/84/84
f 176/176/176 81/81/81 84/84/84
f 96/96/96 87/87/87 94/94/94
f 87/87/87 86/86/86 94/94/94
f 88/88/88 3/3/3 49/49/49
f 3/3/3 48/48/48 49/49/49
f 51/51/51 48/48/48 2/2/2
f 48/48/48 3/3/3 2/2/2
f 89/89/89 88/88/88 96/96/96
f 88/88/88 87/87/87 96/96/96
f 92/92/92 85/85/85 90/90/90
f 85/85/85 93/93/93 90/90/90
f 467/467/462 99/99/99 95/95/95
f 99/99/99 97/97/97 95/95/95
f 98/98/98 5/5/5 97/97/97
f 5/5/5 89/89/89 97/97/97
f 70/70/70 105/105/105 68/68/68
f 105/105/105 104/104/104 68/68/68
f 75/75/75 10/10/10 468/468/463
f 469/469/464 14/14/14 106/106/106
f 107/107/107 106/106/106 18/18/18
f 106/106/106 14/14/14 18/18/18
f 107/107/107 109/109/109 72/72/72
f 109/109/109 105/105/105 72/72/72
f 117/117/117 119/119/119 114/114/114
f 143/143/143 139/139/139 470/470/465
f 111/111/111 143/143/143 112/112/112
f 143/143/143 122/122/122 112/112/112
f 21/21/21 471/471/466 121/121/121
f 120/120/120 112/112/112 123/123/123
f 108/108/108 18/18/18 121/121/121
f 18/18/18 24/24/24 121/121/121
f 118/118/118 117/117/117 108/108/108
f 117/117/117 109/109/109 108/108/108
f 104/104/104 125/125/125 103/103/103
f 125/125/125 237/237/237 103/103/103
f 114/114/114 116/116/116 125/125/125
f 116/116/116 237/237/237 125/125/125
f 130/130/130 133/133/133 132/132/132
f 133/133/133 138/138/138 132/132/132
f 130/130/130 131/131/131 128/128/128
f 131/131/131 136/136/136 128/128/128
f 102/102/102 101/101/101 472/472/467
f 473/473/468 135/135/135 29/29/29
f 131/131/131 132/132/132 113/113/113
f 132/132/132 110/110/110 113/113/113
f 111/111/111 110/110/110 142/142/142
f 110/110/110 137/137/137 142/142/142
f 120/120/120 29/29/29 113/113/113
f 29/29/29 135/135/135 113/113/113
f 155/155/155 160/160/160 157/157/157
f 160/160/160 161/161/161 157/157/157
f 162/162/162 160/160/160 158/158/158
f 160/160/160 155/155/155 158/158/158
f 166/166/166 164/164/164 167/167/167
f 164/164/164 163/163/163 167/167/167
f 172/172/172 158/158/158 474/474/469
f 158/158/158 156/156/156 474/474/469
f 170/170/170 474/474/469 152/152/152
f 474/474/469 156/156/156 152/152/152
f 176/176/176 175/175/175 174/174/174
f 175/175/175 166/166/166 174/174/174
f 162/162/162 178/178/178 45/45/45
f 178/178/178 44/44/44 45/45/45
f 157/157/157 148/148/148 154/154/154
f 148/148/148 147/147/147 154/154/154
f 154/154/154 179/179/179 152/152/152
f 179/179/179 188/188/188 152/152/152
f 146/146/146 181/181/181 147/147/147
f 181/181/181 179/179/179 147/147/147
f 180/180/180 182/182/182 184/184/184
f 182/182/182 305/305/305 184/184/184
f 180/180/180 146/146/146 183/183/183
f 146/146/146 149/149/149 183/183/183
f 150/150/150 54/54/54 151/151/151
f 54/54/54 55/55/55 151/151/151
f 150/150/150 148/148/148 53/53/53
f 148/148/148 161/161/161 53/53/53
f 185/185/185 151/151/151 59/59/59
f 151/151/151 55/55/55 59/59/59
f 185/185/185 187/187/187 149/149/149
f 187/187/187 183/183/183 149/149/149
f 205/205/205 190/190/190 68/68/68
f 190/190/190 69/69/69 68/68/68
f 182/182/182 194/194/194 305/305/305
f 194/194/194 314/314/314 305/305/305
f 196/196/196 199/199/199 197/197/197
f 199/199/199 203/203/203 197/197/197
f 200/200/200 199/199/199 206/206/206
f 199/199/199 204/204/204 206/206/206
f 196/196/196 198/198/198 204/204/204
f 198/198/198 190/190/190 204/204/204
f 209/209/209 208/208/208 163/163/163
f 208/208/208 167/167/167 163/163/163
f 219/219/219 207/207/207 211/211/211
f 207/207/207 208/208/208 211/211/211
f 219/219/219 214/214/214 207/207/207
f 214/214/214 213/213/213 207/207/207
f 82/82/82 81/81/81 213/213/213
f 81/81/81 174/174/174 213/213/213
f 475/475/470 476/476/470 477/477/470
f 211/211/211 210/210/210 220/220/220
f 221/221/221 220/220/220 212/212/212
f 220/220/220 210/210/210 212/212/212
f 478/478/471 479/479/471 480/480/471
f 251/251/251 225/225/225 227/227/227
f 82/82/82 214/214/214 93/93/93
f 214/214/214 224/224/224 93/93/93
f 90/90/90 224/224/224 253/253/253
f 224/224/224 215/215/215 253/253/253
f 232/232/232 201/201/201 231/231/231
f 201/201/201 200/200/200 231/231/231
f 242/242/242 234/234/234 230/230/230
f 234/234/234 231/231/231 230/230/230
f 205/205/205 103/103/103 206/206/206
f 103/103/103 236/236/236 206/206/206
f 242/242/242 230/230/230 238/238/238
f 230/230/230 236/236/236 238/238/238
f 234/234/234 239/239/239 244/244/244
f 239/239/239 241/241/241 244/244/244
f 271/271/271 481/481/472 246/246/246
f 239/239/239 243/243/243 482/482/473
f 116/116/116 483/483/474 238/238/238
f 483/483/474 243/243/243 238/238/238
f 484/484/475 485/485/476 486/486/475
f 249/249/249 248/248/248 250/250/250
f 254/254/254 133/133/133 225/225/225
f 133/133/133 226/226/226 225/225/225
f 255/255/255 248/248/248 258/258/258
f 248/248/248 256/256/256 258/258/258
f 261/261/261 264/264/264 263/263/263
f 264/264/264 270/270/270 263/263/263
f 261/261/261 260/260/260 257/257/257
f 260/260/260 258/258/258 257/257/257
f 266/266/266 254/254/254 255/255/255
f 254/254/254 250/250/250 255/255/255
f 265/265/265 137/137/137 266/266/266
f 137/137/137 138/138/138 266/266/266
f 267/267/267 141/141/141 265/265/265
f 141/141/141 142/142/142 265/265/265
f 260/260/260 262/262/262 267/267/267
f 262/262/262 268/268/268 267/267/267
f 228/228/228 139/139/139 268/268/268
f 139/139/139 141/141/141 268/268/268
f 262/262/262 263/263/263 246/246/246
f 263/263/263 271/271/271 246/246/246
f 286/286/286 280/280/280 284/284/284
f 280/280/280 282/282/282 284/284/284
f 287/287/287 288/288/288 285/285/285
f 288/288/288 283/283/283 285/285/285
f 288/288/288 289/289/289 283/283/283
f 289/289/289 290/290/290 283/283/283
f 292/292/292 275/275/275 295/295/295
f 275/275/275 293/293/293 295/295/295
f 274/274/274 298/298/298 275/275/275
f 298/298/298 293/293/293 275/275/275
f 297/297/297 299/299/299 301/301/301
f 299/299/299 399/399/397 301/301/301
f 297/297/297 274/274/274 300/300/300
f 274/274/274 277/277/277 300/300/300
f 278/278/278 179/179/179 279/279/279
f 179/179/179 181/181/181 279/279/279
f 296/296/296 303/303/303 292/292/292
f 303/303/303 302/302/302 292/292/292
f 188/188/188 179/179/179 302/302/302
f 179/179/179 278/278/278 302/302/302
f 304/304/304 277/277/277 184/184/184
f 277/277/277 279/279/279 184/184/184
f 307/307/307 295/295/295 487/487/477
f 295/295/295 294/294/294 487/487/477
f 296/296/296 306/306/306 303/303/303
f 306/306/306 291/291/291 303/303/303
f 299/299/299 309/309/309 399/399/397
f 312/312/312 317/317/317 488/488/478
f 313/313/313 308/308/308 304/304/304
f 308/308/308 300/300/300 304/304/304
f 311/311/311 310/310/310 315/315/315
f 310/310/310 316/316/316 315/315/315
f 324/324/324 320/320/320 322/322/322
f 320/320/320 319/319/319 322/322/322
f 311/311/311 319/319/319 312/312/312
f 319/319/319 318/318/318 312/312/312
f 202/202/202 203/203/203 315/315/315
f 203/203/203 325/325/325 315/315/315
f 201/201/201 326/326/326 325/325/325
f 326/326/326 322/322/322 325/325/325
f 328/328/328 282/282/282 331/331/331
f 282/282/282 341/341/341 331/331/331
f 328/328/328 327/327/327 284/284/284
f 327/327/327 285/285/285 284/284/284
f 332/332/332 212/212/212 287/287/287
f 212/212/212 209/209/209 287/287/287
f 333/333/333 332/332/332 330/330/330
f 332/332/332 327/327/327 330/330/330
f 331/331/331 342/342/342 334/334/334
f 342/342/342 336/336/336 334/334/334
f 337/337/337 330/330/330 335/335/335
f 330/330/330 334/334/334 335/335/335
f 489/489/479 490/490/479 491/491/479
f 221/221/221 333/333/333 337/337/337
f 324/324/324 348/348/348 320/320/320
f 346/346/346 344/344/344 424/424/420
f 356/356/356 358/358/358 349/349/349
f 358/358/358 348/348/348 349/349/349
f 350/350/350 326/326/326 235/235/235
f 326/326/326 232/232/232 235/235/235
f 351/351/351 356/356/356 350/350/350
f 356/356/356 349/349/349 350/350/350
f 355/355/355 354/354/354 492/492/480
f 354/354/354 389/389/387 492/492/480
f 493/493/481 452/452/448 347/347/347
f 452/452/448 352/352/352 347/347/347
f 241/241/241 494/494/482 364/364/362
f 390/390/388 355/355/355 495/495/483
f 351/351/351 235/235/235 364/364/362
f 235/235/235 244/244/244 364/364/362
f 335/335/335 336/336/336 367/367/365
f 336/336/336 366/366/364 367/367/365
f 485/485/476 496/496/484 497/497/484
f 498/498/485 383/383/381 247/247/247
f 370/370/368 369/369/367 375/375/373
f 369/369/367 372/372/370 375/375/373
f 378/378/376 381/381/379 380/380/378
f 381/381/379 388/388/386 380/380/378
f 378/378/376 377/377/375 374/374/372
f 377/377/375 375/375/373 374/374/372
f 384/384/382 383/383/381 370/370/368
f 383/383/381 371/371/369 370/370/368
f 382/382/380 256/256/256 384/384/382
f 256/256/256 247/247/247 384/384/382
f 385/385/383 264/264/264 382/382/380
f 264/264/264 257/257/257 382/382/380
f 377/377/375 379/379/377 385/385/383
f 379/379/377 386/386/384 385/385/383
f 379/379/377 380/380/378 353/353/353
f 380/380/378 354/354/354 353/353/353
f 390/390/388 270/270/270 353/353/353
f 270/270/270 386/386/384 353/353/353
f 395/395/393 392/392/390 301/301/301
f 392/392/390 298/298/298 301/301/301
f 400/400/398 413/413/411 396/396/394
f 393/393/391 392/392/390 395/395/393
f 402/402/400 401/401/399 407/407/405
f 401/401/399 408/408/406 407/407/405
f 411/411/409 401/401/399 409/409/407
f 401/401/399 404/404/402 409/409/407
f 410/410/408 499/499/486 411/411/409
f 499/499/486 413/413/411 411/411/409
f 408/408/406 400/400/398 405/405/403
f 400/400/398 398/398/396 405/405/403
f 416/416/414 418/418/416 398/398/396
f 418/418/416 405/405/403 398/398/396
f 425/425/421 419/419/417 423/423/419
f 419/419/417 418/418/416 423/423/419
f 417/417/415 426/426/422 416/416/414
f 426/426/422 423/423/419 416/416/414
f 432/432/428 431/431/427 407/407/405
f 431/431/427 402/402/400 407/407/405
f 409/409/407 404/404/402 435/435/431
f 404/404/402 433/433/429 435/435/431
f 430/430/426 437/437/433 433/433/429
f 437/437/433 434/434/430 433/433/429
f 436/436/432 430/430/426 438/438/434
f 430/430/426 431/431/427 438/438/434
f 500/500/487 434/434/430 439/439/435
f 434/434/430 437/437/433 439/439/435
f 439/439/435 443/443/439 440/440/436
f 443/443/439 445/445/441 440/440/436
f 443/443/439 436/436/432 444/444/440
f 436/436/432 446/446/442 444/444/440
f 448/448/444 438/438/434 419/419/417
f 438/438/434 432/432/428 419/419/417
f 343/343/343 448/448/444 344/344/344
f 448/448/444 425/425/421 344/344/344
f 343/343/343 352/352/352 449/449/445
f 352/352/352 450/450/446 449/449/445
f 447/447/443 446/446/442 450/450/446
f 446/446/442 449/449/445 450/450/446
f 454/454/450 455/455/451 372/372/370
f 455/455/451 374/374/372 372/372/370
f 447/447/443 458/458/454 444/444/440
f 388/388/386 381/381/379 456/456/452
# Vertices: 500, normals: 487, texture coordinates: 500, faces: 720

