o left_arm
v -0.7679852247238159 0.21999263763427734 0.2889408469200134
v -0.7661612629890442 0.21476387977600098 0.28881925344467163
v -0.7713900208473206 0.22047901153564453 0.2889408469200134
v -0.7713900208473206 0.21476387977600098 0.28638726472854614
v -0.7713900208473206 0.2094135284423828 0.29040002822875977
v -0.7713900208473206 0.20722472667694092 0.2942911982536316
v -0.7690796256065369 0.2094135284423828 0.2942911982536316
v -0.7664044499397278 0.21476387977600098 0.2942911982536316
v -0.7716332077980042 0.21999263763427734 0.2942911982536316
v -0.7805099487304688 0.21476387977600098 0.2942911982536316
v -0.7767403721809387 0.21816861629486084 0.2942911982536316
v -0.7763755321502686 0.21476387977600098 0.2889408469200134
v -0.7767403721809387 0.2094135284423828 0.2899136543273926
v -0.7767403721809387 0.20406317710876465 0.2942911982536316
v -0.7732139825820923 0.20406317710876465 0.29951995611190796
v -0.7702956199645996 0.2094135284423828 0.29951995611190796
v -0.7713900208473206 0.21476387977600098 0.29939836263656616
v -0.7767403721809387 0.21585828065872192 0.29951995611190796
v -0.7794155478477478 0.21476387977600098 0.29951995611190796
v -0.7819691300392151 0.21160227060317993 0.2942911982536316
v -0.7819691300392151 0.2094135284423828 0.29331839084625244
v -0.7819691300392151 0.20406317710876465 0.2944127917289734
v -0.7873194813728333 0.19810479879379272 0.29951995611190796
v -0.7873194813728333 0.20406317710876465 0.29757434129714966
v -0.7819691300392151 0.19798320531845093 0.29951995611190796
v -0.7767403721809387 0.2007799744606018 0.29951995611190796
v -0.774429976940155 0.20406317710876465 0.3048703074455261
v -0.7767403721809387 0.2094135284423828 0.3054782748222351
v -0.7819691300392151 0.21087270975112915 0.3048703074455261
v -0.7819691300392151 0.21354788541793823 0.29951995611190796
v -0.7873194813728333 0.20819753408432007 0.29951995611190796
v -0.7926697731018066 0.20394158363342285 0.3048703074455261
v -0.7954666018486023 0.19883441925048828 0.3048703074455261
v -0.7926697731018066 0.19883441925048828 0.30231672525405884
v -0.7873194813728333 0.19190329313278198 0.3048703074455261
v -0.7819691300392151 0.19482165575027466 0.3048703074455261
v -0.7777131795883179 0.19883441925048828 0.3048703074455261
v -0.7767403721809387 0.20406317710876465 0.3080318570137024
v -0.7819691300392151 0.2094135284423828 0.30657267570495605
v -0.785373866558075 0.2094135284423828 0.3048703074455261
v -0.7913322448730469 0.20406317710876465 0.3100990653038025
v -0.797898530960083 0.19932079315185547 0.3100990653038025
v -0.802154541015625 0.19348406791687012 0.3100990653038025
v -0.797898530960083 0.19348406791687012 0.30669426918029785
v -0.7926697731018066 0.1916601061820984 0.3048703074455261
v -0.7881706357002258 0.18825531005859375 0.3100990653038025
v -0.7824555039405823 0.19348406791687012 0.3100990653038025
v -0.7789291143417358 0.19883441925048828 0.3100990653038025
v -0.779293954372406 0.20406317710876465 0.3100990653038025
v -0.7819691300392151 0.20600873231887817 0.3100990653038025
v -0.7873194813728333 0.20406317710876465 0.312652587890625
v -0.7873194813728333 0.20138800144195557 0.31544941663742065
v -0.7926697731018066 0.20114481449127197 0.31544941663742065
v -0.797898530960083 0.19883441925048828 0.31557101011276245
v -0.8049513101577759 0.19348406791687012 0.31544941663742065
v -0.8089640736579895 0.18825531005859375 0.31544941663742065
v -0.8030056953430176 0.18825531005859375 0.3100990653038025
v -0.797898530960083 0.18825531005859375 0.3077886700630188
v -0.7926697731018066 0.18825531005859375 0.30718064308166504
v -0.7926697731018066 0.18521535396575928 0.3100990653038025
v -0.7873194813728333 0.18825531005859375 0.31557101011276245
v -0.7841578722000122 0.19348406791687012 0.31544941663742065
v -0.7839146852493286 0.19883441925048828 0.31544941663742065
v -0.7873194813728333 0.19883441925048828 0.317516565322876
v -0.7926697731018066 0.19883441925048828 0.3187325596809387
v -0.797898530960083 0.1966456174850464 0.3207997679710388
v -0.8032488822937012 0.19445687532424927 0.3207997679710388
v -0.8032488822937012 0.19214648008346558 0.3260284662246704
v -0.810909628868103 0.18825531005859375 0.3207997679710388
v -0.8105448484420776 0.18290495872497559 0.31544941663742065
v -0.8032488822937012 0.18290495872497559 0.31131505966186523
v -0.797898530960083 0.18290495872497559 0.3107070326805115
v -0.7926697731018066 0.1822969913482666 0.31544941663742065
v -0.789143443107605 0.18825531005859375 0.3207997679710388
v -0.7892650365829468 0.19348406791687012 0.3207997679710388
v -0.7926697731018066 0.19348406791687012 0.32323169708251953
v -0.797898530960083 0.19348406791687012 0.32493412494659424
v -0.797898530960083 0.18825531005859375 0.32919007539749146
v -0.8032488822937012 0.18825531005859375 0.3310140371322632
v -0.8084776401519775 0.1871609091758728 0.3313788175582886
v -0.8104232549667358 0.18825531005859375 0.3260284662246704
v -0.8161383867263794 0.18290495872497559 0.3260284662246704
v -0.8146792054176331 0.18290495872497559 0.3207997679710388
v -0.8138279914855957 0.17755460739135742 0.31788134574890137
v -0.8084776401519775 0.17755460739135742 0.3150845766067505
v -0.8032488822937012 0.1758522391319275 0.31544941663742065
v -0.797898530960083 0.1780409812927246 0.31544941663742065
v -0.7918186187744141 0.18290495872497559 0.3207997679710388
v -0.7938858270645142 0.18825531005859375 0.3260284662246704
v -0.7980201244354248 0.18290495872497559 0.3313788175582886
v -0.8032488822937012 0.18290495872497559 0.335513174533844
v -0.8084776401519775 0.18290495872497559 0.33660757541656494
v -0.8138279914855957 0.18156737089157104 0.33660757541656494
v -0.8138279914855957 0.18424254655838013 0.3313788175582886
v -0.820151150226593 0.17755460739135742 0.3260284662246704
v -0.8171111941337585 0.17755460739135742 0.3207997679710388
v -0.8138279914855957 0.17232584953308105 0.3189757466316223
v -0.8084776401519775 0.17232584953308105 0.31788134574890137
v -0.8032488822937012 0.1711098551750183 0.3207997679710388
v -0.7959529757499695 0.17755460739135742 0.3207997679710388
v -0.7937642335891724 0.18290495872497559 0.3260284662246704
v -0.7980201244354248 0.17755460739135742 0.3313788175582886
v -0.8032488822937012 0.17755460739135742 0.3380667567253113
v -0.8084776401519775 0.17621701955795288 0.3419579267501831
v -0.8138279914855957 0.17706823348999023 0.3419579267501831
v -0.8191783428192139 0.17755460739135742 0.3380667567253113
v -0.8191783428192139 0.17974340915679932 0.3313788175582886
v -0.8233127593994141 0.17232584953308105 0.3260284662246704
v -0.8191783428192139 0.17232584953308105 0.3217725157737732
v -0.8191783428192139 0.1669754981994629 0.32225894927978516
v -0.8138279914855957 0.16782671213150024 0.3207997679710388
v -0.8084776401519775 0.16831308603286743 0.3207997679710388
v -0.8032488822937012 0.16831308603286743 0.3260284662246704
v -0.7997225522994995 0.17232584953308105 0.3260284662246704
v -0.7999657392501831 0.17232584953308105 0.3313788175582886
v -0.8019113540649414 0.17232584953308105 0.33660757541656494
v -0.8059240579605103 0.17232584953308105 0.3419579267501831
v -0.8084776401519775 0.17232584953308105 0.344146728515625
v -0.8138279914855957 0.17232584953308105 0.34584909677505493
v -0.8191783428192139 0.17524421215057373 0.3419579267501831
v -0.8244071006774902 0.17232584953308105 0.34098517894744873
v -0.8297574520111084 0.16734033823013306 0.3419579267501831
v -0.8297574520111084 0.16806989908218384 0.33660757541656494
v -0.8244071006774902 0.1739066243171692 0.33660757541656494
v -0.825623095035553 0.17232584953308105 0.3313788175582886
v -0.8252583146095276 0.1669754981994629 0.3260284662246704
v -0.8257446885108948 0.16174674034118652 0.3260284662246704
v -0.8191783428192139 0.16174674034118652 0.3240829110145569
v -0.8138279914855957 0.16174674034118652 0.32469087839126587
v -0.8084776401519775 0.16344916820526123 0.3260284662246704
v -0.8032488822937012 0.1669754981994629 0.3313788175582886
v -0.8036137223243713 0.1669754981994629 0.33660757541656494
v -0.8059240579605103 0.1669754981994629 0.3419579267501831
v -0.8112744092941284 0.1669754981994629 0.34730827808380127
v -0.8138279914855957 0.1669754981994629 0.3486458659172058
v -0.8191783428192139 0.1669754981994629 0.3491322994232178
v -0.8253799080848694 0.1669754981994629 0.34730827808380127
v -0.8297574520111084 0.16369235515594482 0.34730827808380127
v -0.8244071006774902 0.16174674034118652 0.3514426350593567
v -0.8295142650604248 0.15639638900756836 0.35253703594207764
v -0.8349862098693848 0.1576123833656311 0.34730827808380127
v -0.8349862098693848 0.16053074598312378 0.3419579267501831
v -0.8341350555419922 0.16174674034118652 0.33660757541656494
v -0.8292710781097412 0.1669754981994629 0.3313788175582886
v -0.8297574520111084 0.16174674034118652 0.32894688844680786
v -0.8297574520111084 0.15639638900756836 0.3283388614654541
v -0.8244071006774902 0.15639638900756836 0.3263933062553406
v -0.8191783428192139 0.15639638900756836 0.3263933062553406
v -0.8138279914855957 0.15639638900756836 0.32894688844680786
v -0.8072617053985596 0.16174674034118652 0.3313788175582886
v -0.8066536784172058 0.16174674034118652 0.33660757541656494
v -0.8084776401519775 0.16174674034118652 0.3436603546142578
v -0.810909628868103 0.16174674034118652 0.34730827808380127
v -0.8138279914855957 0.16174674034118652 0.34974026679992676
v -0.8191783428192139 0.16174674034118652 0.3516858220100403
v -0.8200295567512512 0.15639638900756836 0.35253703594207764
v -0.8191783428192139 0.1510460376739502 0.35180747509002686
v -0.8244071006774902 0.1458173394203186 0.3559418320655823
v -0.8349862098693848 0.1510460376739502 0.35253703594207764
v -0.8394854068756104 0.1510460376739502 0.34730827808380127
v -0.8403365612030029 0.1510460376739502 0.3419579267501831
v -0.8385125994682312 0.1510460376739502 0.33660757541656494
v -0.8349862098693848 0.1458173394203186 0.3323516249656677
v -0.8335270285606384 0.15639638900756836 0.3313788175582886
v -0.8297574520111084 0.1510460376739502 0.32906848192214966
v -0.8244071006774902 0.1510460376739502 0.3282172679901123
v -0.8191783428192139 0.14849251508712769 0.3313788175582886
v -0.8135848045349121 0.1510460376739502 0.33660757541656494
v -0.8104232549667358 0.15639638900756836 0.3419579267501831
v -0.8138279914855957 0.15639638900756836 0.3486458659172058
v -0.8191783428192139 0.1458173394203186 0.34949707984924316
v -0.8297574520111084 0.1458173394203186 0.3306492567062378
v -0.8195431232452393 0.14046698808670044 0.3419579267501831
v -0.3631826639175415 0.1510460376739502 -0.20937129855155945
v -0.36853301525115967 0.1506812572479248 -0.2147216498851776
v -0.3698706030845642 0.1510460376739502 -0.20937129855155945
v -0.3631826639175415 0.15031647682189941 -0.2147216498851776
v -0.35783231258392334 0.14910048246383667 -0.20937129855155945
v -0.289007306098938 0.28164321184158325 0.25708192586898804
v -0.2836569547653198 0.28164321184158325 0.2624322772026062
v -0.2995864152908325 0.27750885486602783 0.2624322772026062
v -0.4548681974411011 0.20406317710876465 0.36311614513397217
v -0.46058332920074463 0.19348406791687012 0.36311614513397217
v -0.46921682357788086 0.18667453527450562 0.36846649646759033
v -0.45863771438598633 0.1510460376739502 0.46148961782455444
v -0.45328736305236816 0.1458173394203186 0.4647728204727173
v -0.4427083134651184 0.1510460376739502 0.45917922258377075
v -0.4161997437477112 0.1458173394203186 0.46769118309020996
v -0.4321292042732239 0.14046698808670044 0.4663535952568054
v -0.42155009508132935 0.1510460376739502 0.4652591943740845
v -0.4321292042732239 0.1669754981994629 0.453585684299469
v -0.43735796213150024 0.15639638900756836 0.45711207389831543
v -0.46921682357788086 0.1510460376739502 0.45930081605911255
v -0.45328736305236816 0.16405713558197021 0.4533424973487854
v -0.4427083134651184 0.1669754981994629 0.45212650299072266
v -0.4321292042732239 0.17232584953308105 0.4507889151573181
v -0.4161997437477112 0.16174674034118652 0.46392160654067993
v -0.410849392414093 0.1669754981994629 0.4631919860839844
v -0.410849392414093 0.15639638900756836 0.466596782207489
v -0.40562063455581665 0.1458173394203186 0.46769118309020996
v -0.3631826639175415 0.1458173394203186 0.46161121129989624
v -0.4913478493690491 0.1458173394203186 0.43206268548965454
v -0.48514628410339355 0.15141087770462036 0.44799214601516724
v -0.48514628410339355 0.14751970767974854 0.4533424973487854
v -0.45863771438598633 0.1669754981994629 0.4484785199165344
v -0.4480586647987366 0.17232584953308105 0.44799214601516724
v -0.4321292042732239 0.18290495872497559 0.44324982166290283
v -0.4161997437477112 0.18825531005859375 0.44543856382369995
v -0.410849392414093 0.17427146434783936 0.45857125520706177
v -0.40562063455581665 0.1669754981994629 0.46380001306533813
v -0.40562063455581665 0.15639638900756836 0.466596782207489
v -0.3844624161720276 0.1458173394203186 0.46392160654067993
v -0.36853301525115967 0.16174674034118652 0.45844966173171997
v -0.35296833515167236 0.1510460376739502 0.45857125520706177
v -0.352603554725647 0.14046698808670044 0.46112483739852905
v -0.4954822063446045 0.1510460376739502 0.4003254175186157
v -0.49219900369644165 0.1510460376739502 0.41625481843948364
v -0.4844167232513428 0.15639638900756836 0.43206268548965454
v -0.4734727740287781 0.16174674034118652 0.44276338815689087
v -0.46410971879959106 0.17232584953308105 0.4374130368232727
v -0.45863771438598633 0.18290495872497559 0.43218427896499634
v -0.4480586647987366 0.19263285398483276 0.43206268548965454
v -0.4267788529396057 0.19348406791687012 0.43826425075531006
v -0.410849392414093 0.19883441925048828 0.44057464599609375
v -0.40562063455581665 0.19348406791687012 0.4439793825149536
v -0.4002702832221985 0.18290495872497559 0.4530993103981018
v -0.3950415253639221 0.17232584953308105 0.46076005697250366
v -0.3843408226966858 0.17755460739135742 0.45650404691696167
v -0.3704785704612732 0.17755460739135742 0.4533424973487854
v -0.352603554725647 0.15639638900756836 0.45662564039230347
v -0.3472532033920288 0.1458173394203186 0.4580848813056946
v -0.5010757446289062 0.1483708620071411 0.3896247148513794
v -0.4997381567955017 0.1510460376739502 0.384395956993103
v -0.49645501375198364 0.15639638900756836 0.3896247148513794
v -0.4932934045791626 0.15639638900756836 0.4003254175186157
v -0.48514628410339355 0.16466516256332397 0.41625481843948364
v -0.46921682357788086 0.18290495872497559 0.41844362020492554
v -0.452800989151001 0.19348406791687012 0.4268339276313782
v -0.4321292042732239 0.2094135284423828 0.426347553730011
v -0.410849392414093 0.2253429889678955 0.4268339276313782
v -0.4002702832221985 0.2232757806777954 0.43206268548965454
v -0.4002702832221985 0.2122102975845337 0.4374130368232727
v -0.3791120648384094 0.20406317710876465 0.439358651638031
v -0.38969117403030396 0.18825531005859375 0.4488433599472046
v -0.36853301525115967 0.18825531005859375 0.4466545581817627
v -0.35783231258392334 0.17828422784805298 0.44799214601516724
v -0.3472532033920288 0.15639638900756836 0.4538288712501526
v -0.34202444553375244 0.15797722339630127 0.44799214601516724
v -0.3409300446510315 0.16174674034118652 0.44276338815689087
v -0.3367956876754761 0.1510460376739502 0.44276338815689087
v -0.4994949698448181 0.1458173394203186 0.37904560565948486
v -0.4957253932952881 0.15445083379745483 0.37904560565948486
v -0.49244225025177 0.1510460376739502 0.3738168478012085
v -0.4797959327697754 0.16831308603286743 0.36846649646759033
v -0.4823495149612427 0.17232584953308105 0.3738168478012085
v -0.4903750419616699 0.16369235515594482 0.37904560565948486
v -0.4957253932952881 0.1578555703163147 0.384395956993103
v -0.4772423505783081 0.17755460739135742 0.4109044671058655
v -0.4615561366081238 0.19883441925048828 0.4003254175186157
v -0.4427083134651184 0.2094135284423828 0.41613322496414185
v -0.4427083134651184 0.20406317710876465 0.4235507845878601
v -0.410849392414093 0.23178768157958984 0.42148357629776
v -0.4002702832221985 0.23105812072753906 0.4268339276313782
v -0.3843408226966858 0.23057174682617188 0.42926591634750366
v -0.38969117403030396 0.21999263763427734 0.4349810481071472
v -0.37376171350479126 0.2094135284423828 0.43644022941589355
v -0.3631826639175415 0.20406317710876465 0.4349810481071472
v -0.35077953338623047 0.17755460739135742 0.44276338815689087
v -0.34202444553375244 0.16770511865615845 0.4374130368232727
v -0.3376469016075134 0.15639638900756836 0.4374130368232727
v -0.33533650636672974 0.1458173394203186 0.4374130368232727
v -0.48514628410339355 0.1510460376739502 0.3693177103996277
v -0.4797959327697754 0.15639638900756836 0.367007315158844
v -0.474567174911499 0.16174674034118652 0.3646969199180603
v -0.46921682357788086 0.16174674034118652 0.36323773860931396
v -0.474567174911499 0.1669754981994629 0.3645753264427185
v -0.4638664722442627 0.17755460739135742 0.3601977825164795
v -0.46642005443573 0.18290495872497559 0.36311614513397217
v -0.45863771438598633 0.18290495872497559 0.3581305742263794
v -0.45498979091644287 0.19348406791687012 0.3578873872756958
v -0.45146340131759644 0.20406317710876465 0.3578873872756958
v -0.4480586647987366 0.20406317710876465 0.3532666563987732
v -0.4504905939102173 0.21476387977600098 0.36311614513397217
v -0.45863771438598633 0.20710313320159912 0.37904560565948486
v -0.46034014225006104 0.20406317710876465 0.3896247148513794
v -0.44441068172454834 0.2253429889678955 0.39497506618499756
v -0.43735796213150024 0.23057174682617188 0.39740699529647827
v -0.4321292042732239 0.22509974241256714 0.4109044671058655
v -0.40562063455581665 0.24978435039520264 0.4055541753768921
v -0.4002702832221985 0.24127238988876343 0.41820043325424194
v -0.3843408226966858 0.2465011477470398 0.41783565282821655
v -0.3843408226966858 0.25391870737075806 0.4109044671058655
v -0.37376171350479126 0.24200201034545898 0.42148357629776
v -0.36853301525115967 0.24127238988876343 0.420875608921051
v -0.36853301525115967 0.23069334030151367 0.4268339276313782
v -0.36670899391174316 0.21476387977600098 0.43206268548965454
v -0.35783231258392334 0.2094135284423828 0.4286579489707947
v -0.35527873039245605 0.19883441925048828 0.43206268548965454
v -0.351509153842926 0.19883441925048828 0.4268339276313782
v -0.34652358293533325 0.18290495872497559 0.4268339276313782
v -0.3409300446510315 0.1669754981994629 0.43206268548965454
v -0.337890088558197 0.15639638900756836 0.43206268548965454
v -0.4797959327697754 0.1458173394203186 0.3695608973503113
v -0.474567174911499 0.15639638900756836 0.36554813385009766
v -0.4638664722442627 0.15639638900756836 0.3646969199180603
v -0.45863771438598633 0.17232584953308105 0.35898178815841675
v -0.4573001265525818 0.17755460739135742 0.3578873872756958
v -0.4480586647987366 0.18290495872497559 0.35460424423217773
v -0.4427083134651184 0.19348406791687012 0.34986186027526855
v -0.4427083134651184 0.20564395189285278 0.34730827808380127
v -0.4425867199897766 0.21999263763427734 0.34730827808380127
v -0.4427083134651184 0.23057174682617188 0.357157826423645
v -0.4427083134651184 0.23215252161026 0.36846649646759033
v -0.4475722312927246 0.2253429889678955 0.384395956993103
v -0.44137072563171387 0.23057174682617188 0.3896247148513794
v -0.42155009508132935 0.24467718601226807 0.3896247148513794
v -0.4140109419822693 0.2465011477470398 0.4003254175186157
v -0.4002702832221985 0.2570802569389343 0.3982582092285156
v -0.3950415253639221 0.25185149908065796 0.4098101258277893
v -0.388596773147583 0.2570802569389343 0.4055541753768921
v -0.37376171350479126 0.25853943824768066 0.4055541753768921
v -0.3791120648384094 0.2669298052787781 0.3896247148513794
v -0.35783231258392334 0.2624306082725525 0.39813661575317383
v -0.37376171350479126 0.25185149908065796 0.41345804929733276
v -0.3631826639175415 0.24127238988876343 0.4188084006309509
v -0.35783231258392334 0.23592203855514526 0.41868680715560913
v -0.34202444553375244 0.23057174682617188 0.4036085605621338
v -0.3472532033920288 0.23057174682617188 0.4105396866798401
v -0.3496851921081543 0.21999263763427734 0.41625481843948364
v -0.35138756036758423 0.2094135284423828 0.42148357629776
v -0.3481043577194214 0.20406317710876465 0.41625481843948364
v -0.34834760427474976 0.19348406791687012 0.42148357629776
v -0.3453075885772705 0.17232584953308105 0.41625481843948364
v -0.3412948250770569 0.1669754981994629 0.4268339276313782
v -0.3382548689842224 0.1510460376739502 0.4268339276313782
v -0.34251081943511963 0.14046698808670044 0.41625481843948364
v -0.4002702832221985 0.15177565813064575 0.37904560565948486
v -0.46921682357788086 0.14046698808670044 0.3736952543258667
v -0.4480586647987366 0.15639638900756836 0.3665209412574768
v -0.45328736305236816 0.17232584953308105 0.35849541425704956
v -0.4427083134651184 0.18290495872497559 0.3535098433494568
v -0.43735796213150024 0.18825531005859375 0.34998345375061035
v -0.43735796213150024 0.19883441925048828 0.34524112939834595
v -0.4321292042732239 0.20029360055923462 0.3419579267501831
v -0.4321292042732239 0.2094135284423828 0.3379451632499695
v -0.43735796213150024 0.21476387977600098 0.34049874544143677
v -0.43735796213150024 0.2253429889678955 0.3414715528488159
v -0.43930351734161377 0.23057174682617188 0.34730827808380127
v -0.43735796213150024 0.23811084032058716 0.35253703594207764
v -0.4321292042732239 0.24552839994430542 0.3578873872756958
v -0.43735796213150024 0.237138032913208 0.3738168478012085
v -0.4321292042732239 0.24017804861068726 0.37904560565948486
v -0.40562063455581665 0.25841784477233887 0.384395956993103
v -0.4002702832221985 0.26036345958709717 0.3896247148513794
v -0.38969117403030396 0.2624306082725525 0.39497506618499756
v -0.36853301525115967 0.2759280800819397 0.3738168478012085
v -0.35783231258392334 0.27495527267456055 0.37904560565948486
v -0.3472532033920288 0.2753201127052307 0.37904560565948486
v -0.3472532033920288 0.26778095960617065 0.389867901802063
v -0.3456724286079407 0.2624306082725525 0.39497506618499756
v -0.36293941736221313 0.25185149908065796 0.4109044671058655
v -0.352603554725647 0.2465011477470398 0.40920209884643555
v -0.33934926986694336 0.24127238988876343 0.4003254175186157
v -0.33922767639160156 0.23592203855514526 0.4003254175186157
v -0.3361877202987671 0.23057174682617188 0.39497506618499756
v -0.3414164185523987 0.21999263763427734 0.4003254175186157
v -0.34397000074386597 0.21476387977600098 0.4055541753768921
v -0.3472532033920288 0.1966456174850464 0.4055541753768921
v -0.347739577293396 0.18290495872497559 0.4109044671058655
v -0.34834760427474976 0.1669754981994629 0.4055541753768921
v -0.3517523407936096 0.15639638900756836 0.4003254175186157
v -0.35783231258392334 0.1669754981994629 0.38853031396865845
v -0.35783231258392334 0.1510460376739502 0.39485347270965576
v -0.3631826639175415 0.1436285376548767 0.39497506618499756
v -0.37376171350479126 0.1458173394203186 0.3899894952774048
v -0.3843408226966858 0.1510460376739502 0.38403117656707764
v -0.4002702832221985 0.15639638900756836 0.3744248151779175
v -0.420698881149292 0.1510460376739502 0.3738168478012085
v -0.4267788529396057 0.17232584953308105 0.35946816205978394
v -0.4321292042732239 0.19093048572540283 0.34730827808380127
v -0.42155009508132935 0.2052791714668274 0.33660757541656494
v -0.4267788529396057 0.21476387977600098 0.33405399322509766
v -0.43273717164993286 0.2253429889678955 0.33660757541656494
v -0.4295756220817566 0.23592203855514526 0.33660757541656494
v -0.4267788529396057 0.2465011477470398 0.34074193239212036
v -0.410849392414093 0.26145780086517334 0.33660757541656494
v -0.41024142503738403 0.2570802569389343 0.3260284662246704
v -0.4296972155570984 0.2465011477470398 0.34730827808380127
v -0.4267788529396057 0.25002753734588623 0.3578873872756958
v -0.40562063455581665 0.2619442343711853 0.36311614513397217
v -0.38969117403030396 0.27215850353240967 0.36311614513397217
v -0.3843408226966858 0.2731313109397888 0.36846649646759033
v -0.37376171350479126 0.2799408435821533 0.36311614513397217
v -0.352603554725647 0.28310245275497437 0.36846649646759033
v -0.352603554725647 0.29951828718185425 0.3504698872566223
v -0.3434836268424988 0.2942895293235779 0.3578873872756958
v -0.34202444553375244 0.2886959910392761 0.36311614513397217
v -0.3366740942001343 0.2783600687980652 0.3716280460357666
v -0.3366740942001343 0.273009717464447 0.37709999084472656
v -0.33898448944091797 0.2570802569389343 0.39497506618499756
v -0.3346068859100342 0.2465011477470398 0.39497506618499756
v -0.3313237428665161 0.23798924684524536 0.3896247148513794
v -0.333512544631958 0.23057174682617188 0.3896247148513794
v -0.3412948250770569 0.21476387977600098 0.39497506618499756
v -0.34846919775009155 0.18825531005859375 0.39497506618499756
v -0.3495635390281677 0.17755460739135742 0.4003254175186157
v -0.352603554725647 0.1712314486503601 0.39497506618499756
v -0.35783231258392334 0.17755460739135742 0.37989675998687744
v -0.3631826639175415 0.15639638900756836 0.38828712701797485
v -0.37376171350479126 0.15372121334075928 0.384395956993103
v -0.38969117403030396 0.1669754981994629 0.36992567777633667
v -0.410849392414093 0.17755460739135742 0.3575226068496704
v -0.38969117403030396 0.20406317710876465 0.3391611576080322
v -0.3950415253639221 0.18825531005859375 0.35229384899139404
v -0.4161997437477112 0.20406317710876465 0.3370940089225769
v -0.410849392414093 0.21476387977600098 0.3310140371322632
v -0.42155009508132935 0.21476387977600098 0.3323516249656677
v -0.42155009508132935 0.23057174682617188 0.32931166887283325
v -0.42155009508132935 0.23592203855514526 0.32919007539749146
v -0.4161997437477112 0.23592203855514526 0.3255420923233032
v -0.40999817848205566 0.2465011477470398 0.3207997679710388
v -0.4087821841239929 0.25185149908065796 0.3207997679710388
v -0.40562063455581665 0.25878262519836426 0.3207997679710388
v -0.3950415253639221 0.2570802569389343 0.3083966374397278
v -0.4002702832221985 0.2624306082725525 0.31544941663742065
v -0.3980814814567566 0.26778095960617065 0.31544941663742065
v -0.3974735140800476 0.273009717464447 0.3207997679710388
v -0.3950415253639221 0.2783600687980652 0.3260284662246704
v -0.4002702832221985 0.2716721296310425 0.3313788175582886
v -0.4039182662963867 0.26778095960617065 0.33660757541656494
v -0.4161997437477112 0.2581746578216553 0.34730827808380127
v -0.38969117403030396 0.2761712670326233 0.35253703594207764
v -0.38263845443725586 0.2783600687980652 0.3578873872756958
v -0.36853301525115967 0.2939247488975525 0.34730827808380127
v -0.352603554725647 0.3081517815589905 0.3419579267501831
v -0.3472532033920288 0.3218924403190613 0.3313788175582886
v -0.352603554725647 0.32286524772644043 0.3260284662246704
v -0.3366740942001343 0.3220140337944031 0.33660757541656494
v -0.32609498500823975 0.336727499961853 0.32712286710739136
v -0.32609498500823975 0.32614845037460327 0.33660757541656494
v -0.3366740942001343 0.3100973963737488 0.3460922837257385
v -0.3313237428665161 0.3093677759170532 0.34730827808380127
v -0.32609498500823975 0.29015517234802246 0.3578873872756958
v -0.3313237428665161 0.28358882665634155 0.3644537329673767
v -0.3313237428665161 0.2783600687980652 0.36822330951690674
v -0.3291349411010742 0.26778095960617065 0.3738168478012085
v -0.333512544631958 0.2570802569389343 0.3896247148513794
v -0.3313237428665161 0.25148671865463257 0.3896247148513794
v -0.32816219329833984 0.24127238988876343 0.384395956993103
v -0.3313237428665161 0.23057174682617188 0.384395956993103
v -0.3436052203178406 0.20406317710876465 0.37904560565948486
v -0.34895557165145874 0.18825531005859375 0.3896247148513794
v -0.352603554725647 0.18290495872497559 0.38390952348709106
v -0.352603554725647 0.1916601061820984 0.36846649646759033
v -0.36853301525115967 0.17864900827407837 0.36846649646759033
v -0.3698706030845642 0.18290495872497559 0.36311614513397217
v -0.3791120648384094 0.18290495872497559 0.3598330020904541
v -0.3631826639175415 0.21476387977600098 0.334297239780426
v -0.38969117403030396 0.2094135284423828 0.3351483941078186
v -0.3950415253639221 0.2253429889678955 0.32274532318115234
v -0.40136468410491943 0.23057174682617188 0.3207997679710388
v -0.410849392414093 0.23592203855514526 0.32238054275512695
v -0.4002702832221985 0.2465011477470398 0.31386858224868774
v -0.38969117403030396 0.25185149908065796 0.3051134943962097
v -0.3865296244621277 0.2624306082725525 0.29951995611190796
v -0.3870159983634949 0.273009717464447 0.29951995611190796
v -0.38920480012893677 0.2783600687980652 0.3048703074455261
v -0.37643688917160034 0.2942895293235779 0.28359049558639526
v -0.3771665096282959 0.29951828718185425 0.2889408469200134
v -0.38324642181396484 0.2942895293235779 0.3048703074455261
v -0.3810576796531677 0.29951828718185425 0.3100990653038025
v -0.3950415253639221 0.2758064866065979 0.3419579267501831
v -0.3791120648384094 0.2934383153915405 0.33660757541656494
v -0.36853301525115967 0.3048686385154724 0.3324732184410095
v -0.35795390605926514 0.3260267972946167 0.31544941663742065
v -0.3313237428665161 0.3485226631164551 0.3100990653038025
v -0.3155158758163452 0.35375142097473145 0.31544941663742065
v -0.3048151731491089 0.3684648275375366 0.30949103832244873
v -0.3048151731491089 0.35217058658599854 0.3207997679710388
v -0.31016552448272705 0.33611953258514404 0.3313788175582886
v -0.31016552448272705 0.32712119817733765 0.33660757541656494
v -0.3155158758163452 0.3100973963737488 0.34511953592300415
v -0.3207446336746216 0.3186092972755432 0.3419579267501831
v -0.32609498500823975 0.29951828718185425 0.35265862941741943
v -0.3207446336746216 0.2889391779899597 0.3556985855102539
v -0.32609498500823975 0.2801840305328369 0.36311614513397217
v -0.32366299629211426 0.2624306082725525 0.36846649646759033
v -0.3222038149833679 0.25185149908065796 0.36846649646759033
v -0.3208662271499634 0.2465011477470398 0.36311614513397217
v -0.32390618324279785 0.24127238988876343 0.36846649646759033
v -0.32828378677368164 0.23057174682617188 0.36846649646759033
v -0.3409300446510315 0.2094135284423828 0.36846649646759033
v -0.3472532033920288 0.19871282577514648 0.36846649646759033
v -0.3516307473182678 0.19883441925048828 0.3578873872756958
v -0.35783231258392334 0.19348406791687012 0.3578873872756958
v -0.3631826639175415 0.20005041360855103 0.34730827808380127
v -0.352603554725647 0.21999263763427734 0.3323516249656677
v -0.3631826639175415 0.23142290115356445 0.31544941663742065
v -0.3631826639175415 0.24127238988876343 0.3037759065628052
v -0.3843408226966858 0.2253429889678955 0.3216509222984314
v -0.3843408226966858 0.2465011477470398 0.3047487139701843
v -0.3775312900543213 0.2570802569389343 0.2942911982536316
v -0.37376171350479126 0.273009717464447 0.2828608751296997
v -0.37339693307876587 0.28358882665634155 0.2783617377281189
v -0.37376171350479126 0.2942895293235779 0.2779969573020935
v -0.37339693307876587 0.29951828718185425 0.2783617377281189
v -0.3708433508872986 0.3100973963737488 0.2783617377281189
v -0.3704785704612732 0.31544774770736694 0.28359049558639526
v -0.36853301525115967 0.3207980990409851 0.28650885820388794
v -0.37376171350479126 0.3119213581085205 0.3048703074455261
v -0.370600163936615 0.3100973963737488 0.3207997679710388
v -0.3498067855834961 0.3419562578201294 0.29951995611190796
v -0.31016552448272705 0.3707752227783203 0.3048703074455261
v -0.2995864152908325 0.3877990245819092 0.29951995611190796
v -0.29423606395721436 0.39497339725494385 0.29550719261169434
v -0.289007306098938 0.3897446393966675 0.30219513177871704
v -0.29423606395721436 0.38390791416168213 0.3048703074455261
v -0.29423606395721436 0.3733288049697876 0.3100990653038025
v -0.29423606395721436 0.34730660915374756 0.3237181305885315
v -0.2995864152908325 0.3260267972946167 0.3344188332557678
v -0.3155158758163452 0.29951828718185425 0.3491322994232178
v -0.30955755710601807 0.2942895293235779 0.34730827808380127
v -0.316123902797699 0.26778095960617065 0.3578873872756958
v -0.316123902797699 0.2570802569389343 0.3578873872756958
v -0.31016552448272705 0.2570802569389343 0.3486458659172058
v -0.3115031123161316 0.25185149908065796 0.34730827808380127
v -0.31661027669906616 0.2465011477470398 0.35253703594207764
v -0.320015013217926 0.24127238988876343 0.35253703594207764
v -0.32609498500823975 0.23312526941299438 0.35253703594207764
v -0.3366740942001343 0.21974939107894897 0.35253703594207764
v -0.3472532033920288 0.21087270975112915 0.34730827808380127
v -0.3472532033920288 0.21999263763427734 0.335513174533844
v -0.352603554725647 0.24115079641342163 0.3048703074455261
v -0.36853301525115967 0.25185149908065796 0.29380476474761963
v -0.36853301525115967 0.2624306082725525 0.2849280834197998
v -0.3631826639175415 0.2624306082725525 0.2822529077529907
v -0.36853301525115967 0.273009717464447 0.2778753638267517
v -0.3546707034111023 0.2889391779899597 0.25708192586898804
v -0.3675602078437805 0.2942895293235779 0.26778262853622437
v -0.35588669776916504 0.31544774770736694 0.25185316801071167
v -0.35783231258392334 0.29951828718185425 0.2555011510848999
v -0.3637906312942505 0.3100973963737488 0.2624322772026062
v -0.36184507608413696 0.3260267972946167 0.26778262853622437
v -0.3543059229850769 0.336727499961853 0.25708192586898804
v -0.3609938621520996 0.33137714862823486 0.27301138639450073
v -0.36220985651016235 0.33137714862823486 0.28359049558639526
v -0.3614802360534668 0.33137714862823486 0.2942911982536316
v -0.3431188464164734 0.3578857183456421 0.2783617377281189
v -0.352603554725647 0.3419562578201294 0.29368317127227783
v -0.3207446336746216 0.3711400032043457 0.2942911982536316
v -0.31016552448272705 0.3843942880630493 0.29343998432159424
v -0.3048151731491089 0.3977701663970947 0.28359049558639526
v -0.2995864152908325 0.3978917598724365 0.2889408469200134
v -0.289007306098938 0.41078126430511475 0.2783617377281189
v -0.27830666303634644 0.42063069343566895 0.26778262853622437
v -0.27307790517807007 0.4149155616760254 0.2783617377281189
v -0.2836569547653198 0.400323748588562 0.29271042346954346
v -0.27307790517807007 0.39497339725494385 0.2968447804450989
v -0.27830666303634644 0.3897446393966675 0.3017086982727051
v -0.26249879598617554 0.3897446393966675 0.29733115434646606
v -0.2790362238883972 0.3843942880630493 0.3048703074455261
v -0.289007306098938 0.3578857183456421 0.317516565322876
v -0.289007306098938 0.34730660915374756 0.32238054275512695
v -0.27307790517807007 0.33137714862823486 0.31824618577957153
v -0.27307790517807007 0.34730660915374756 0.3149629831314087
v -0.289007306098938 0.3260267972946167 0.32967644929885864
v -0.289007306098938 0.31544774770736694 0.33150041103363037
v -0.2995864152908325 0.2942895293235779 0.34037715196609497
v -0.3048151731491089 0.2783600687980652 0.34524112939834595
v -0.3021399974822998 0.273009717464447 0.3419579267501831
v -0.3022615909576416 0.2624306082725525 0.33660757541656494
v -0.3048151731491089 0.2570802569389343 0.33660757541656494
v -0.31016552448272705 0.24978435039520264 0.33660757541656494
v -0.32609498500823975 0.23421967029571533 0.3419579267501831
v -0.3319317102432251 0.23057174682617188 0.33660757541656494
v -0.3366740942001343 0.22947734594345093 0.3313788175582886
v -0.34202444553375244 0.2328820824623108 0.3207997679710388
v -0.3313237428665161 0.246379554271698 0.3048703074455261
v -0.3366740942001343 0.25185149908065796 0.29343998432159424
v -0.35783231258392334 0.25185149908065796 0.2914944291114807
v -0.35783231258392334 0.2624306082725525 0.28006410598754883
v -0.3472532033920288 0.28358882665634155 0.2559875249862671
v -0.3472532033920288 0.29963988065719604 0.2465028166770935
v -0.35090112686157227 0.3100973963737488 0.2465028166770935
v -0.3339989185333252 0.3260267972946167 0.22534465789794922
v -0.352603554725647 0.33137714862823486 0.25039398670196533
v -0.34397000074386597 0.34730660915374756 0.24127405881881714
v -0.34202444553375244 0.3578857183456421 0.24589484930038452
v -0.3472532033920288 0.3525353670120239 0.25708192586898804
v -0.3472532033920288 0.35387301445007324 0.27301138639450073
v -0.329256534576416 0.37904393672943115 0.2624322772026062
v -0.32609498500823975 0.3728424310684204 0.28359049558639526
v -0.3048151731491089 0.4005669355392456 0.2783617377281189
v -0.2995864152908325 0.4055525064468384 0.27751052379608154
v -0.28341376781463623 0.4214819669723511 0.2624322772026062
v -0.28706175088882446 0.4214819669723511 0.25708192586898804
v -0.27307790517807007 0.42646753787994385 0.25708192586898804
v -0.2677275538444519 0.4256162643432617 0.2624322772026062
v -0.26249879598617554 0.42038750648498535 0.27301138639450073
v -0.24656933546066284 0.42075228691101074 0.27301138639450073
v -0.2517980933189392 0.4169827699661255 0.2783617377281189
v -0.2517980933189392 0.41090285778045654 0.28407686948776245
v -0.2571484446525574 0.40457963943481445 0.2889408469200134
v -0.2571484446525574 0.39497339725494385 0.29343998432159424
v -0.26736271381378174 0.3738151788711548 0.3048703074455261
v -0.2677275538444519 0.3684648275375366 0.30645108222961426
v -0.25581085681915283 0.3419562578201294 0.3048703074455261
v -0.27101069688796997 0.3048686385154724 0.31544941663742065
v -0.2817113995552063 0.31544774770736694 0.3260284662246704
v -0.28244102001190186 0.29951828718185425 0.3260284662246704
v -0.2905881404876709 0.28358882665634155 0.3313788175582886
v -0.29423606395721436 0.27422571182250977 0.3313788175582886
v -0.2995864152908325 0.2641329765319824 0.3313788175582886
v -0.2995864152908325 0.2624306082725525 0.3260284662246704
v -0.3051799535751343 0.2570802569389343 0.31544941663742065
v -0.3155158758163452 0.2531890869140625 0.3048703074455261
v -0.3048151731491089 0.26534897089004517 0.28359049558639526
v -0.29423606395721436 0.26972657442092896 0.28359049558639526
v -0.3155158758163452 0.2682673931121826 0.27301138639450073
v -0.32609498500823975 0.2783600687980652 0.2558659315109253
v -0.34202444553375244 0.273009717464447 0.2646210789680481
v -0.3366740942001343 0.2894255518913269 0.2465028166770935
v -0.33947086334228516 0.29951828718185425 0.24127405881881714
v -0.3207446336746216 0.3100973963737488 0.22096705436706543
v -0.3207446336746216 0.29951828718185425 0.23081660270690918
v -0.32609498500823975 0.3048686385154724 0.22923582792282104
v -0.33022934198379517 0.31544774770736694 0.22534465789794922
v -0.32609498500823975 0.3260267972946167 0.2147655487060547
v -0.3313237428665161 0.336727499961853 0.22011590003967285
v -0.3313237428665161 0.3525353670120239 0.2212103009223938
v -0.3207446336746216 0.3578857183456421 0.20017367601394653
v -0.324271023273468 0.3684648275375366 0.2147655487060547
v -0.32609498500823975 0.38111114501953125 0.23057341575622559
v -0.33278292417526245 0.3738151788711548 0.24127405881881714
v -0.3313237428665161 0.37831437587738037 0.25185316801071167
v -0.3207446336746216 0.39314937591552734 0.2465028166770935
v -0.3093143701553345 0.4055525064468384 0.2465028166770935
v -0.2949656844139099 0.4162532091140747 0.25708192586898804
v -0.289007306098938 0.4214819669723511 0.24771881103515625
v -0.2744154930114746 0.42683231830596924 0.25185316801071167
v -0.2571484446525574 0.4284130334854126 0.25708192586898804
v -0.2517980933189392 0.42695391178131104 0.2624322772026062
v -0.24121898412704468 0.4320610761642456 0.24321967363357544
v -0.24656933546066284 0.4055525064468384 0.28577929735183716
v -0.2517980933189392 0.39497339725494385 0.2913728356361389
v -0.24656933546066284 0.3843942880630493 0.29076480865478516
v -0.24656933546066284 0.34730660915374756 0.29927676916122437
v -0.24693411588668823 0.33137714862823486 0.29951995611190796
v -0.24656933546066284 0.31775808334350586 0.2942911982536316
v -0.2677275538444519 0.29951828718185425 0.30949103832244873
v -0.27660423517227173 0.2889391779899597 0.31544941663742065
v -0.2836569547653198 0.2889391779899597 0.32517731189727783
v -0.2836569547653198 0.2817648649215698 0.3207997679710388
v -0.29192572832107544 0.273009717464447 0.3260284662246704
v -0.2930200695991516 0.26778095960617065 0.31544941663742065
v -0.29423606395721436 0.2660785913467407 0.3100990653038025
v -0.289007306098938 0.27009135484695435 0.2942911982536316
v -0.27830666303634644 0.28127843141555786 0.27301138639450073
v -0.27307790517807007 0.28577762842178345 0.25185316801071167
v -0.27307790517807007 0.286628782749176 0.2465028166770935
v -0.31016552448272705 0.28127843141555786 0.25185316801071167
v -0.3155158758163452 0.29270875453948975 0.23592370748519897
v -0.31016552448272705 0.30024784803390503 0.22534465789794922
v -0.3207446336746216 0.31544774770736694 0.21622473001480103
v -0.3175830841064453 0.33137714862823486 0.198836088180542
v -0.3209878206253052 0.34730660915374756 0.198836088180542
v -0.3155158758163452 0.3525353670120239 0.19032418727874756
v -0.3048151731491089 0.3684648275375366 0.17755627632141113
v -0.315029501914978 0.3684648275375366 0.19348573684692383
v -0.3141782879829407 0.37904393672943115 0.198836088180542
v -0.32135260105133057 0.3897446393966675 0.23057341575622559
v -0.31892067193984985 0.39497339725494385 0.23592370748519897
v -0.3048151731491089 0.41090285778045654 0.23154616355895996
v -0.2995864152908325 0.4174691438674927 0.22534465789794922
v -0.29423606395721436 0.42281949520111084 0.22534465789794922
v -0.2879129648208618 0.42683231830596924 0.22534465789794922
v -0.2836569547653198 0.42488670349121094 0.23592370748519897
v -0.2517980933189392 0.4297506809234619 0.2465028166770935
v -0.2571484446525574 0.4302370548248291 0.24127405881881714
v -0.2571484446525574 0.43741142749786377 0.22704702615737915
v -0.24656933546066284 0.43741142749786377 0.23361337184906006
v -0.24656933546066284 0.44276177883148193 0.22449344396591187
v -0.24656933546066284 0.31131333112716675 0.2889408469200134
v -0.2609180212020874 0.29951828718185425 0.29951995611190796
v -0.2769690752029419 0.28358882665634155 0.3100990653038025
v -0.27307790517807007 0.28358882665634155 0.29951995611190796
v -0.2677275538444519 0.286628782749176 0.2889408469200134
v -0.26420116424560547 0.2889391779899597 0.2783617377281189
v -0.26249879598617554 0.28991198539733887 0.25185316801071167
v -0.26249879598617554 0.2912495732307434 0.24127405881881714
v -0.27830666303634644 0.2889391779899597 0.23835569620132446
v -0.29885685443878174 0.2942895293235779 0.23057341575622559
v -0.29423606395721436 0.30389583110809326 0.2147655487060547
v -0.3048151731491089 0.3100973963737488 0.20941519737243652
v -0.31016552448272705 0.3260267972946167 0.19470173120498657
v -0.3048151731491089 0.3207980990409851 0.19555294513702393
v -0.3048151731491089 0.33137714862823486 0.18582499027252197
v -0.2995864152908325 0.3260267972946167 0.18606817722320557
v -0.31016552448272705 0.336727499961853 0.1874057650566101
v -0.3138135075569153 0.34730660915374756 0.18825697898864746
v -0.2950872778892517 0.36323606967926025 0.1669771671295166
v -0.2953304648399353 0.3843942880630493 0.1669771671295166
v -0.3048151731491089 0.3843942880630493 0.1824202537536621
v -0.3048151731491089 0.3977701663970947 0.19348573684692383
v -0.2955736517906189 0.4214819669723511 0.21999430656433105
v -0.289007306098938 0.42719709873199463 0.21999430656433105
v -0.27818500995635986 0.4320610761642456 0.21999430656433105
v -0.2517980933189392 0.4447072744369507 0.2147655487060547
v -0.25313568115234375 0.29951828718185425 0.28359049558639526
v -0.24121898412704468 0.30365264415740967 0.24127405881881714
v -0.24656933546066284 0.3004910349845886 0.23592370748519897
v -0.2517980933189392 0.29745107889175415 0.23592370748519897
v -0.2517980933189392 0.29951828718185425 0.23057341575622559
v -0.2542300820350647 0.3048686385154724 0.21999430656433105
v -0.26249879598617554 0.2956271171569824 0.23057341575622559
v -0.27830666303634644 0.30024784803390503 0.21999430656433105
v -0.27830666303634644 0.32006847858428955 0.1829066276550293
v -0.28985852003097534 0.31544774770736694 0.19348573684692383
v -0.289007306098938 0.328580379486084 0.17755627632141113
v -0.3018968105316162 0.3419562578201294 0.17755627632141113
v -0.2836569547653198 0.3578857183456421 0.15810048580169678
v -0.28244102001190186 0.3738151788711548 0.1510477066040039
v -0.27830666303634644 0.3843942880630493 0.14484620094299316
v -0.2836569547653198 0.3897446393966675 0.1510477066040039
v -0.2836569547653198 0.39497339725494385 0.1529933214187622
v -0.2995864152908325 0.3992292881011963 0.1829066276550293
v -0.2924121022224426 0.4055525064468384 0.17755627632141113
v -0.29423606395721436 0.41090285778045654 0.1893513798713684
v -0.29411447048187256 0.4214819669723511 0.2147655487060547
v -0.27307790517807007 0.431817889213562 0.19348573684692383
v -0.2677275538444519 0.43741142749786377 0.20029526948928833
v -0.2797658443450928 0.4320610761642456 0.2147655487060547
v -0.24656933546066284 0.4482337236404419 0.20406484603881836
v -0.24656933546066284 0.31131333112716675 0.2147655487060547
v -0.2677275538444519 0.30681419372558594 0.20941519737243652
v -0.27307790517807007 0.3165420889854431 0.18825697898864746
v -0.27307790517807007 0.3232300281524658 0.17755627632141113
v -0.27830666303634644 0.33137714862823486 0.17050355672836304
v -0.27830666303634644 0.34730660915374756 0.15943807363510132
v -0.27830666303634644 0.3684648275375366 0.14934533834457397
v -0.2677275538444519 0.3843942880630493 0.13596946001052856
v -0.2677275538444519 0.3897446393966675 0.135118305683136
v -0.27307790517807007 0.39497339725494385 0.14010381698608398
v -0.27660423517227173 0.4055525064468384 0.1510477066040039
v -0.27307790517807007 0.4119971990585327 0.15639805793762207
v -0.2836569547653198 0.41090285778045654 0.17232751846313477
v -0.2677275538444519 0.4214819669723511 0.17062515020370483
v -0.27830666303634644 0.42512989044189453 0.18825697898864746
v -0.25775641202926636 0.44276177883148193 0.198836088180542
v -0.24656933546066284 0.3229868412017822 0.1829066276550293
v -0.2571484446525574 0.3207980990409851 0.1829066276550293
v -0.2571484446525574 0.3260267972946167 0.17427313327789307
v -0.26249879598617554 0.33162039518356323 0.1669771671295166
v -0.2677275538444519 0.3447530269622803 0.15639805793762207
v -0.2659035325050354 0.3684648275375366 0.14046865701675415
v -0.26407957077026367 0.37904393672943115 0.13523989915847778
v -0.2620123624801636 0.400323748588562 0.12988954782485962
v -0.2610396146774292 0.4055525064468384 0.12988954782485962
v -0.2632283568382263 0.41090285778045654 0.13523989915847778
v -0.2571484446525574 0.41090285778045654 0.1281871199607849
v -0.2571484446525574 0.4162532091140747 0.13195669651031494
v -0.2517980933189392 0.4253730773925781 0.14046865701675415
v -0.26225560903549194 0.4214819669723511 0.16174840927124023
v -0.24583971500396729 0.43741142749786377 0.1669771671295166
v -0.24121898412704468 0.3423210382461548 0.15639805793762207
v -0.2517980933189392 0.3578857183456421 0.14168459177017212
v -0.2571484446525574 0.3684648275375366 0.13633430004119873
v -0.2517980933189392 0.3843942880630493 0.12843036651611328
v -0.2571484446525574 0.39497339725494385 0.12709277868270874
v -0.2571484446525574 0.4055525064468384 0.12660634517669678
v -0.2517980933189392 0.41090285778045654 0.12502557039260864
v -0.2517980933189392 0.4191715717315674 0.12988954782485962
v -0.2517980933189392 0.42306268215179443 0.13523989915847778
v -0.24656933546066284 0.4292643070220947 0.14046865701675415
v -0.24644774198532104 0.4320610761642456 0.14581900835037231
v -0.24121898412704468 0.3738151788711548 0.1304975152015686
v -0.2517980933189392 0.3978917598724365 0.12453919649124146
v -0.2517980933189392 0.4055525064468384 0.12405276298522949
v -0.24656933546066284 0.41090285778045654 0.1236879825592041
v -0.24656933546066284 0.4162532091140747 0.1256335973739624
v -0.24656933546066284 0.42196834087371826 0.12988954782485962
v -0.24656933546066284 0.400323748588562 0.12344479560852051
v -0.2497308850288391 0.23592203855514526 -0.20937129855155945
v -0.25070369243621826 0.23592203855514526 -0.2147216498851776
v -0.24948769807815552 0.2094135284423828 -0.20414254069328308
v -0.25252765417099 0.2094135284423828 -0.20937129855155945
v -0.25313568115234375 0.21476387977600098 -0.2147216498851776
v -0.2516764998435974 0.2253429889678955 -0.2200719714164734
v -0.25082528591156006 0.2094135284423828 -0.22530072927474976
v -0.24948769807815552 0.2253429889678955 -0.22530072927474976
v -0.24936610460281372 0.19883441925048828 -0.20414254069328308
v -0.2517980933189392 0.19348406791687012 -0.21022248268127441
v -0.25131165981292725 0.18825531005859375 -0.2147216498851776
v -0.25325727462768555 0.19883441925048828 -0.2147216498851776
v -0.25301408767700195 0.20406317710876465 -0.2200719714164734
v -0.2498524785041809 0.19348406791687012 -0.22530072927474976
v -0.25070369243621826 0.18825531005859375 -0.2200719714164734
v -0.2517980933189392 0.14679008722305298 -0.10868743062019348
v -0.2517980933189392 0.15676122903823853 -0.13519597053527832
v -0.2571484446525574 0.15542364120483398 -0.14577507972717285
v -0.24656933546066284 0.16381394863128662 -0.16170454025268555
v -0.24620455503463745 0.17232584953308105 -0.20937129855155945
v -0.3299861550331116 0.17232584953308105 -0.2147216498851776
v -0.32609498500823975 0.17232584953308105 -0.2128976583480835
v -0.32609498500823975 0.17463624477386475 -0.2147216498851776
v -0.32609498500823975 0.17609542608261108 -0.2200719714164734
v -0.3207446336746216 0.17524421215057373 -0.2147216498851776
v -0.3155158758163452 0.17232584953308105 -0.21180325746536255
v -0.3048151731491089 0.17220425605773926 -0.2147216498851776
v -0.2995864152908325 0.1663675308227539 -0.20937129855155945
v -0.31016552448272705 0.1669754981994629 -0.20864170789718628
v -0.3155158758163452 0.1669754981994629 -0.20924967527389526
v -0.3207446336746216 0.1669754981994629 -0.2103440761566162
v -0.3288917541503906 0.1669754981994629 -0.2147216498851776
v -0.3207446336746216 0.159801185131073 -0.2147216498851776
v -0.32609498500823975 0.16332757472991943 -0.2200719714164734
v -0.33010774850845337 0.1669754981994629 -0.2200719714164734
v -0.3319317102432251 0.17232584953308105 -0.2200719714164734
v -0.32609498500823975 0.17232584953308105 -0.224084734916687
v -0.3207446336746216 0.17232584953308105 -0.22530072927474976
v -0.3207446336746216 0.17621701955795288 -0.2200719714164734
v -0.31016552448272705 0.17414987087249756 -0.2200719714164734
v -0.29423606395721436 0.16806989908218384 -0.2200719714164734
v -0.27830666303634644 0.16150355339050293 -0.2147216498851776
v -0.27830666303634644 0.1599227786064148 -0.20937129855155945
v -0.27307790517807007 0.1594364047050476 -0.20937129855155945
v -0.2677275538444519 0.15846359729766846 -0.20414254069328308
v -0.2677275538444519 0.1596795916557312 -0.20937129855155945
v -0.2517980933189392 0.1664891242980957 -0.20414254069328308
v -0.26006680727005005 0.15639638900756836 -0.19356343150138855
v -0.2772122621536255 0.15639638900756836 -0.20414254069328308
v -0.2836569547653198 0.15554523468017578 -0.20414254069328308
v -0.289007306098938 0.15639638900756836 -0.20487213134765625
v -0.29423606395721436 0.1510460376739502 -0.20462894439697266
v -0.3155158758163452 0.16174674034118652 -0.20961448550224304
v -0.3070039749145508 0.1458173394203186 -0.2147216498851776
v -0.3061527609825134 0.1458173394203186 -0.2200719714164734
v -0.3155158758163452 0.15639638900756836 -0.22092318534851074
v -0.3229334354400635 0.1669754981994629 -0.22530072927474976
v -0.31016552448272705 0.17086666822433472 -0.22530072927474976
v -0.2995864152908325 0.1669754981994629 -0.22566553950309753
v -0.27830666303634644 0.15676122903823853 -0.22530072927474976
v -0.27830666303634644 0.16053074598312378 -0.2200719714164734
v -0.27307790517807007 0.1600443720817566 -0.2147216498851776
v -0.2677275538444519 0.1594364047050476 -0.2147216498851776
v -0.26249879598617554 0.16113877296447754 -0.20937129855155945
v -0.2521628737449646 0.1669754981994629 -0.20937129855155945
v -0.26249879598617554 0.14922207593917847 -0.14054632186889648
v -0.26213395595550537 0.1510460376739502 -0.14577507972717285
v -0.24365097284317017 0.1669754981994629 -0.1722836196422577
v -0.2517980933189392 0.16150355339050293 -0.19356343150138855
v -0.2677275538444519 0.14861410856246948 -0.18821308016777039
v -0.27830666303634644 0.15141087770462036 -0.19879218935966492
v -0.2836569547653198 0.1510460376739502 -0.20085936784744263
v -0.29423606395721436 0.1458173394203186 -0.20535853505134583
v -0.3017752170562744 0.1458173394203186 -0.20937129855155945
v -0.3048151731491089 0.1510460376739502 -0.22566553950309753
v -0.3155158758163452 0.1669754981994629 -0.22724631428718567
v -0.31016552448272705 0.1669754981994629 -0.22761112451553345
v -0.289007306098938 0.1510460376739502 -0.23028630018234253
v -0.27830666303634644 0.14922207593917847 -0.23065108060836792
v -0.2677275538444519 0.14995169639587402 -0.23065108060836792
v -0.2677275538444519 0.15457242727279663 -0.22530072927474976
v -0.2677275538444519 0.1576123833656311 -0.2200719714164734
v -0.26249879598617554 0.16028755903244019 -0.2147216498851776
v -0.24887973070144653 0.1669754981994629 -0.2200719714164734
v -0.2571484446525574 0.15469402074813843 -0.18286272883415222
v -0.29423606395721436 0.1458173394203186 -0.22943508625030518
v -0.26249879598617554 0.14800608158111572 -0.2358798384666443
v -0.26249879598617554 0.15639638900756836 -0.22335514426231384
v -0.2561756372451782 0.16174674034118652 -0.2200719714164734
v -0.24656933546066284 0.16126036643981934 -0.2358798384666443
v -0.26176917552948 0.1458173394203186 -0.24123018980026245
f 766 767 776
f 767 768 776
f 777 778 782
f 752 753 765
f 765 753 766
f 753 754 766
f 754 755 766
f 766 755 767
f 755 756 767
f 768 767 769
f 767 756 769
f 768 769 777
f 769 770 777
f 777 770 778
f 770 771 778
f 778 771 779
f 748 749 764
f 748 730 749
f 730 731 749
f 731 732 749
f 732 733 749
f 763 764 775
f 763 747 764
f 747 748 764
f 732 708 733
f 734 735 750
f 750 735 751
f 735 736 751
f 736 737 751
f 751 737 752
f 752 737 753
f 737 738 753
f 753 738 754
f 738 739 754
f 754 739 755
f 740 741 755
f 755 741 756
f 739 740 755
f 741 742 756
f 756 742 757
f 756 757 769
f 769 757 770
f 757 758 770
f 758 760 770
f 770 760 771
f 771 772 780
f 771 760 772
f 747 746 748
f 746 727 748
f 727 728 748
f 728 729 748
f 729 730 748
f 729 706 730
f 731 730 732
f 730 706 732
f 706 707 732
f 707 708 732
f 762 763 775
f 762 745 763
f 745 746 763
f 746 747 763
f 707 680 708
f 680 682 708
f 713 714 734
f 734 714 735
f 715 716 735
f 735 716 736
f 714 715 735
f 716 717 736
f 736 717 737
f 717 718 737
f 718 719 737
f 737 719 738
f 738 719 739
f 719 720 739
f 720 721 739
f 721 722 739
f 739 722 740
f 740 722 741
f 722 723 741
f 742 741 743
f 741 723 743
f 742 743 757
f 757 743 758
f 743 744 758
f 744 759 758
f 758 759 760
f 760 759 761
f 760 761 772
f 772 773 781
f 772 761 773
f 745 744 746
f 744 727 746
f 726 727 744
f 727 726 728
f 728 705 729
f 726 704 728
f 704 705 728
f 705 706 729
f 705 676 706
f 706 676 707
f 676 677 707
f 677 678 707
f 678 679 707
f 679 680 707
f 761 744 762
f 744 745 762
f 761 762 773
f 773 762 774
f 679 643 680
f 680 681 682
f 678 643 679
f 798 799 848
f 848 799 849
f 799 800 849
f 800 801 849
f 849 801 850
f 849 850 867
f 683 684 709
f 684 685 709
f 685 686 709
f 686 687 709
f 687 688 709
f 709 688 710
f 688 689 710
f 710 689 711
f 690 712 711
f 711 712 713
f 689 690 711
f 714 713 715
f 713 712 715
f 712 690 715
f 690 691 715
f 715 691 716
f 691 692 716
f 692 693 716
f 717 716 718
f 716 693 718
f 693 694 718
f 694 696 718
f 696 698 718
f 718 698 719
f 719 698 720
f 698 697 720
f 697 699 720
f 699 700 720
f 700 701 720
f 720 701 721
f 721 701 722
f 701 702 722
f 722 702 723
f 723 724 743
f 723 702 724
f 724 725 743
f 743 725 744
f 759 744 761
f 725 726 744
f 725 703 726
f 703 704 726
f 704 671 705
f 671 672 705
f 672 673 705
f 673 674 705
f 674 675 705
f 675 676 705
f 703 670 704
f 670 671 704
f 676 675 677
f 675 639 677
f 639 640 677
f 677 640 678
f 640 641 678
f 641 642 678
f 851 830 852
f 851 852 867
f 829 830 851
f 683 649 684
f 649 650 684
f 650 651 684
f 684 651 685
f 685 654 686
f 652 653 685
f 653 654 685
f 651 652 685
f 686 656 687
f 654 655 686
f 655 656 686
f 656 657 687
f 687 657 688
f 657 658 688
f 658 659 688
f 688 659 689
f 659 660 689
f 689 660 690
f 690 660 691
f 660 661 691
f 691 661 692
f 661 662 692
f 662 663 692
f 692 663 693
f 693 663 694
f 663 664 694
f 664 695 694
f 694 695 696
f 698 696 699
f 696 695 699
f 697 698 699
f 695 664 699
f 664 665 699
f 665 666 699
f 699 666 700
f 666 667 700
f 700 668 701
f 667 668 700
f 701 668 702
f 702 703 724
f 668 669 702
f 702 669 703
f 724 703 725
f 602 603 644
f 644 603 645
f 603 604 645
f 645 604 646
f 604 605 646
f 605 606 647
f 606 607 647
f 607 608 648
f 648 608 649
f 649 608 650
f 669 670 703
f 671 634 672
f 670 633 671
f 633 634 671
f 634 635 672
f 635 636 672
f 636 637 672
f 672 637 673
f 673 637 674
f 637 638 674
f 638 639 674
f 674 639 675
f 669 632 670
f 632 633 670
f 638 596 639
f 596 597 639
f 639 597 640
f 640 597 641
f 597 598 641
f 641 598 642
f 598 600 642
f 829 802 847
f 829 828 830
f 828 827 830
f 830 827 831
f 852 830 853
f 830 831 853
f 828 829 846
f 846 829 847
f 650 608 651
f 651 608 652
f 612 613 654
f 613 614 654
f 653 652 654
f 652 612 654
f 654 614 655
f 608 609 652
f 609 610 652
f 610 611 652
f 611 612 652
f 615 616 656
f 656 616 657
f 655 614 656
f 614 615 656
f 657 618 658
f 616 618 657
f 618 181 658
f 181 180 658
f 658 180 659
f 659 180 660
f 180 179 660
f 660 179 661
f 179 181 661
f 181 619 661
f 619 620 661
f 661 620 662
f 620 621 662
f 621 622 662
f 622 625 662
f 625 624 662
f 662 624 663
f 663 624 664
f 624 626 664
f 626 627 664
f 627 628 664
f 664 628 665
f 628 629 665
f 665 629 666
f 629 631 666
f 666 631 667
f 668 667 669
f 667 631 669
f 631 632 669
f 602 601 603
f 600 599 601
f 599 555 601
f 555 556 601
f 556 557 601
f 601 557 603
f 557 558 603
f 603 558 604
f 558 560 604
f 604 560 605
f 561 562 605
f 605 562 606
f 560 561 605
f 562 563 606
f 563 565 606
f 565 564 606
f 606 564 607
f 608 607 609
f 607 564 609
f 633 588 634
f 634 588 635
f 632 588 633
f 635 591 636
f 590 591 635
f 588 589 635
f 589 590 635
f 636 591 637
f 591 592 637
f 592 593 637
f 593 594 637
f 637 594 638
f 594 595 638
f 595 596 638
f 587 588 632
f 631 630 632
f 630 587 632
f 595 555 596
f 596 555 597
f 597 555 598
f 555 599 598
f 598 599 600
f 846 847 866
f 826 827 828
f 826 828 844
f 844 828 845
f 845 828 846
f 827 826 831
f 826 825 831
f 831 825 832
f 831 832 853
f 853 832 854
f 845 846 865
f 865 846 866
f 611 571 612
f 612 571 613
f 613 571 614
f 571 572 614
f 572 573 614
f 614 573 615
f 564 566 609
f 566 567 609
f 567 568 609
f 609 568 610
f 610 568 611
f 568 569 611
f 569 570 611
f 570 571 611
f 578 579 616
f 579 617 616
f 573 574 615
f 574 575 615
f 615 575 616
f 575 576 616
f 576 577 616
f 577 578 616
f 616 617 618
f 618 617 181
f 181 617 619
f 179 180 181
f 617 579 619
f 619 579 620
f 620 579 621
f 579 580 621
f 580 581 621
f 581 582 621
f 621 582 622
f 582 583 622
f 583 623 622
f 625 622 626
f 622 623 626
f 624 625 626
f 623 583 626
f 626 583 627
f 583 584 627
f 584 585 627
f 627 585 628
f 628 585 629
f 585 586 629
f 586 587 629
f 587 630 629
f 629 630 631
f 554 555 595
f 555 554 556
f 556 554 557
f 515 516 557
f 557 516 558
f 554 515 557
f 516 559 558
f 558 559 560
f 560 559 561
f 559 516 561
f 516 518 561
f 561 518 562
f 518 519 562
f 562 519 563
f 565 563 566
f 563 519 566
f 564 565 566
f 588 544 589
f 587 544 588
f 590 548 591
f 591 548 592
f 546 547 590
f 589 546 590
f 547 548 590
f 544 545 589
f 545 546 589
f 548 549 592
f 549 550 592
f 550 551 592
f 551 552 592
f 592 552 593
f 552 553 593
f 593 553 594
f 553 554 594
f 594 554 595
f 586 544 587
f 785 786 791
f 791 786 792
f 793 792 794
f 792 786 794
f 793 794 797
f 865 866 871
f 871 866 872
f 824 825 826
f 824 826 844
f 843 824 844
f 843 844 864
f 844 845 864
f 864 845 865
f 810 825 824
f 825 810 832
f 832 833 854
f 832 810 833
f 833 834 854
f 864 865 870
f 870 865 871
f 785 783 786
f 570 525 571
f 525 526 571
f 572 571 573
f 571 526 573
f 526 528 573
f 573 528 574
f 519 520 566
f 566 520 567
f 520 521 567
f 567 521 568
f 521 522 568
f 568 522 569
f 522 523 569
f 569 523 570
f 523 524 570
f 524 525 570
f 577 533 578
f 578 533 579
f 579 533 580
f 528 529 574
f 529 530 574
f 574 530 575
f 530 531 575
f 531 532 575
f 575 532 576
f 576 532 577
f 532 533 577
f 533 534 580
f 580 534 581
f 534 536 581
f 581 536 582
f 536 537 582
f 537 538 582
f 582 538 583
f 538 539 583
f 539 541 583
f 583 541 584
f 541 540 584
f 585 584 586
f 584 540 586
f 543 544 586
f 540 542 586
f 542 543 586
f 553 515 554
f 515 514 516
f 514 517 516
f 516 517 518
f 514 515 553
f 517 514 518
f 514 478 518
f 478 479 518
f 518 479 519
f 479 480 519
f 519 480 520
f 544 543 545
f 548 547 549
f 545 508 546
f 508 509 546
f 546 509 547
f 509 510 547
f 510 511 547
f 511 512 547
f 547 512 549
f 543 508 545
f 549 512 550
f 512 513 550
f 550 513 551
f 513 514 551
f 552 551 553
f 551 514 553
f 786 783 787
f 786 787 794
f 794 795 797
f 794 787 795
f 795 796 797
f 870 871 873
f 871 872 873
f 809 810 824
f 823 824 843
f 823 809 824
f 842 823 843
f 842 843 864
f 863 864 870
f 863 842 864
f 810 809 811
f 810 811 833
f 833 811 834
f 834 835 855
f 834 811 835
f 855 835 856
f 869 863 870
f 869 870 873
f 783 784 787
f 525 524 526
f 524 488 526
f 488 489 526
f 489 527 526
f 526 527 528
f 527 489 528
f 489 490 528
f 490 491 528
f 528 491 529
f 480 481 520
f 481 482 520
f 520 482 521
f 482 483 521
f 483 484 521
f 521 484 522
f 484 485 522
f 522 485 523
f 523 487 524
f 485 486 523
f 486 487 523
f 487 488 524
f 532 498 533
f 498 499 533
f 533 499 534
f 491 492 529
f 529 492 530
f 492 493 530
f 493 494 530
f 530 494 531
f 494 495 531
f 495 496 531
f 531 496 532
f 496 497 532
f 497 498 532
f 499 500 534
f 500 501 534
f 501 502 534
f 502 535 534
f 534 535 536
f 536 535 537
f 503 504 537
f 538 537 539
f 537 504 539
f 535 502 537
f 502 503 537
f 504 505 539
f 541 539 542
f 539 505 542
f 540 541 542
f 542 507 543
f 507 508 543
f 505 506 542
f 506 507 542
f 513 478 514
f 476 477 478
f 478 477 479
f 476 478 513
f 477 439 479
f 439 440 479
f 479 440 480
f 480 440 481
f 508 470 509
f 507 469 508
f 469 470 508
f 509 470 510
f 470 471 510
f 510 471 511
f 471 472 511
f 472 473 511
f 473 474 511
f 474 475 511
f 511 475 512
f 475 476 512
f 512 476 513
f 787 784 788
f 787 788 795
f 788 789 795
f 795 789 796
f 807 808 809
f 809 808 811
f 807 809 821
f 821 809 822
f 822 809 823
f 840 823 841
f 841 823 842
f 822 823 840
f 841 842 861
f 861 842 862
f 862 842 863
f 862 863 869
f 811 808 812
f 811 812 835
f 835 836 856
f 812 813 835
f 813 814 835
f 814 815 835
f 835 815 836
f 488 449 489
f 487 447 488
f 447 448 488
f 448 449 488
f 489 449 490
f 449 450 490
f 490 450 491
f 450 451 491
f 491 451 492
f 482 481 483
f 481 440 483
f 440 441 483
f 441 442 483
f 483 442 484
f 442 443 484
f 484 443 485
f 485 443 486
f 486 445 487
f 445 446 487
f 446 447 487
f 443 444 486
f 444 445 486
f 497 458 498
f 499 498 500
f 498 458 500
f 492 451 493
f 453 454 493
f 493 454 494
f 451 452 493
f 452 453 493
f 494 454 495
f 454 455 495
f 455 456 495
f 456 457 495
f 495 457 496
f 457 458 496
f 496 458 497
f 458 459 500
f 459 460 500
f 500 460 501
f 460 461 501
f 461 462 501
f 462 463 501
f 463 464 501
f 501 464 502
f 464 465 502
f 502 465 503
f 465 466 503
f 503 466 504
f 466 467 504
f 467 468 504
f 504 468 505
f 468 469 505
f 505 469 506
f 506 469 507
f 439 477 476
f 475 437 476
f 437 438 476
f 438 439 476
f 439 438 440
f 440 438 441
f 469 467 470
f 467 427 470
f 470 427 471
f 468 467 469
f 427 428 471
f 471 428 472
f 428 429 472
f 429 430 472
f 430 431 472
f 431 432 472
f 472 432 473
f 432 433 473
f 433 434 473
f 434 435 473
f 473 435 474
f 435 437 474
f 474 437 475
f 789 788 790
f 806 805 807
f 805 804 807
f 804 808 807
f 812 808 813
f 808 804 813
f 806 807 821
f 820 821 840
f 821 822 840
f 820 819 821
f 819 806 821
f 839 840 858
f 858 840 859
f 840 841 859
f 859 841 860
f 860 841 861
f 839 820 840
f 836 815 838
f 813 804 814
f 804 803 814
f 815 814 816
f 816 814 817
f 814 803 817
f 815 816 838
f 448 402 449
f 449 402 450
f 447 401 448
f 446 400 447
f 400 401 447
f 401 402 448
f 402 403 450
f 403 404 450
f 450 404 451
f 451 404 452
f 438 435 441
f 435 395 441
f 441 395 442
f 395 396 442
f 443 442 444
f 442 396 444
f 444 398 445
f 398 399 445
f 445 399 446
f 399 400 446
f 396 397 444
f 397 398 444
f 457 414 458
f 414 413 458
f 458 413 459
f 452 406 453
f 406 407 453
f 407 408 453
f 453 408 454
f 454 408 455
f 404 405 452
f 405 406 452
f 408 409 455
f 409 410 455
f 410 411 455
f 455 411 456
f 456 411 457
f 411 412 457
f 412 414 457
f 413 415 459
f 415 416 459
f 459 416 460
f 460 416 461
f 461 416 462
f 419 420 462
f 420 421 462
f 462 421 463
f 416 417 462
f 417 418 462
f 418 419 462
f 421 422 463
f 422 424 463
f 463 424 464
f 464 424 465
f 465 424 466
f 466 424 467
f 424 425 467
f 425 426 467
f 426 427 467
f 435 436 437
f 437 436 438
f 436 435 438
f 426 425 427
f 425 423 427
f 423 387 427
f 428 427 429
f 427 387 429
f 387 386 429
f 429 386 430
f 430 386 431
f 386 388 431
f 388 389 431
f 389 390 431
f 390 391 431
f 431 391 432
f 391 392 432
f 432 392 433
f 392 393 433
f 433 393 434
f 393 394 434
f 394 395 434
f 434 395 435
f 803 804 805
f 803 805 818
f 805 806 818
f 818 806 819
f 819 820 839
f 818 819 839
f 858 859 868
f 857 858 868
f 838 839 857
f 857 839 858
f 838 816 839
f 816 817 839
f 817 818 839
f 859 860 868
f 837 838 857
f 817 803 818
f 401 363 402
f 363 364 402
f 402 364 403
f 400 362 401
f 362 363 401
f 399 359 400
f 359 360 400
f 360 361 400
f 361 362 400
f 364 365 403
f 365 366 403
f 403 366 404
f 366 367 404
f 404 367 405
f 395 394 396
f 396 394 397
f 397 358 398
f 398 358 399
f 358 359 399
f 394 358 397
f 413 414 415
f 414 412 415
f 405 369 406
f 406 369 407
f 369 370 407
f 370 371 407
f 371 372 407
f 407 372 408
f 408 372 409
f 367 368 405
f 368 369 405
f 372 373 409
f 373 374 409
f 409 374 410
f 410 377 411
f 375 376 410
f 376 377 410
f 377 378 411
f 411 378 412
f 378 379 412
f 379 380 412
f 412 380 415
f 380 381 415
f 415 381 416
f 416 381 417
f 418 383 419
f 383 384 419
f 420 419 421
f 421 419 422
f 419 384 422
f 381 382 417
f 417 382 418
f 382 383 418
f 384 385 422
f 385 387 422
f 387 423 422
f 424 422 425
f 422 423 425
f 386 387 388
f 387 385 388
f 385 348 388
f 348 349 388
f 349 350 388
f 388 350 389
f 350 351 389
f 351 352 389
f 389 352 390
f 352 353 390
f 390 353 391
f 353 354 391
f 354 355 391
f 391 355 392
f 355 356 392
f 392 356 393
f 393 356 394
f 356 357 394
f 357 358 394
f 175 174 177
f 174 178 177
f 362 326 363
f 326 328 363
f 328 327 363
f 363 327 364
f 364 327 365
f 361 325 362
f 325 326 362
f 358 323 359
f 360 359 361
f 359 323 361
f 323 324 361
f 324 325 361
f 365 327 366
f 366 327 367
f 327 329 367
f 329 330 367
f 330 331 367
f 367 331 368
f 357 322 358
f 322 323 358
f 368 332 369
f 332 333 369
f 369 333 370
f 333 334 370
f 334 335 370
f 335 336 370
f 370 336 371
f 372 371 373
f 331 332 368
f 376 337 377
f 377 337 378
f 378 339 379
f 339 340 379
f 379 340 380
f 343 344 380
f 380 344 381
f 340 341 380
f 341 342 380
f 342 343 380
f 381 344 382
f 382 346 383
f 346 347 383
f 383 347 384
f 347 348 384
f 384 348 385
f 344 345 382
f 345 346 382
f 347 311 348
f 311 312 348
f 348 312 349
f 349 312 350
f 312 313 350
f 350 313 351
f 313 314 351
f 351 314 352
f 315 316 352
f 352 316 353
f 314 315 352
f 316 317 353
f 317 318 353
f 353 318 354
f 354 318 355
f 318 319 355
f 319 320 355
f 320 322 355
f 355 322 356
f 356 322 357
f 174 175 176
f 325 294 326
f 294 295 326
f 295 296 326
f 296 297 326
f 328 326 329
f 326 297 329
f 327 328 329
f 324 294 325
f 322 321 323
f 323 321 324
f 321 292 324
f 292 293 324
f 293 294 324
f 329 297 330
f 330 299 332
f 297 298 330
f 298 299 330
f 331 330 332
f 320 321 322
f 299 300 332
f 333 332 334
f 332 300 334
f 300 301 334
f 334 301 335
f 301 302 335
f 304 305 338
f 338 305 339
f 339 305 340
f 305 306 340
f 306 307 340
f 340 307 341
f 342 309 343
f 309 310 343
f 344 343 345
f 345 343 346
f 343 310 346
f 307 308 341
f 308 309 341
f 341 309 342
f 310 311 346
f 346 311 347
f 310 282 311
f 282 283 311
f 311 283 312
f 283 284 312
f 313 312 314
f 312 284 314
f 284 285 314
f 285 286 314
f 314 286 315
f 286 287 315
f 315 287 316
f 316 287 317
f 287 288 317
f 288 289 317
f 317 289 318
f 318 289 319
f 289 290 319
f 290 292 319
f 319 292 320
f 292 321 320
f 294 293 295
f 293 264 295
f 264 265 295
f 265 266 295
f 295 266 296
f 266 267 296
f 297 296 298
f 296 267 298
f 290 291 292
f 292 291 293
f 291 264 293
f 299 298 300
f 267 268 298
f 298 268 300
f 268 269 300
f 300 269 301
f 301 269 302
f 269 270 302
f 270 271 302
f 272 273 303
f 303 273 304
f 273 274 304
f 274 275 304
f 304 275 305
f 275 276 305
f 305 276 306
f 276 277 306
f 306 277 307
f 277 278 307
f 278 279 307
f 307 279 308
f 308 279 309
f 279 280 309
f 280 282 309
f 309 282 310
f 280 281 282
f 282 281 283
f 281 182 283
f 283 182 284
f 182 184 284
f 184 255 284
f 255 256 284
f 284 256 285
f 285 259 286
f 256 257 285
f 257 258 285
f 258 259 285
f 286 260 288
f 259 260 286
f 287 286 288
f 260 261 288
f 261 262 288
f 289 288 290
f 288 262 290
f 262 263 290
f 263 264 290
f 264 291 290
f 263 241 264
f 264 241 265
f 241 242 265
f 242 243 265
f 265 243 266
f 243 244 266
f 266 244 267
f 244 245 267
f 267 245 268
f 246 247 268
f 247 248 268
f 248 249 268
f 268 249 269
f 245 246 268
f 269 249 270
f 249 250 270
f 270 250 271
f 272 253 273
f 253 254 273
f 273 254 274
f 275 274 276
f 274 254 276
f 277 276 278
f 276 254 278
f 254 184 278
f 184 183 278
f 279 278 280
f 278 183 280
f 183 182 280
f 182 281 280
f 182 183 184
f 184 254 255
f 254 253 255
f 255 253 256
f 253 252 256
f 256 252 257
f 258 237 259
f 237 238 259
f 260 259 261
f 259 238 261
f 252 233 257
f 233 234 257
f 234 235 257
f 257 235 258
f 235 236 258
f 236 237 258
f 238 239 261
f 239 240 261
f 261 240 262
f 262 240 263
f 240 241 263
f 240 223 241
f 241 223 242
f 223 224 242
f 224 225 242
f 242 225 243
f 243 225 244
f 225 226 244
f 226 227 244
f 227 228 244
f 244 228 245
f 228 229 245
f 245 229 246
f 229 230 246
f 246 230 247
f 230 231 247
f 247 231 248
f 249 248 250
f 233 252 251
f 251 252 253
f 218 219 237
f 220 221 237
f 219 220 237
f 236 218 237
f 237 221 238
f 221 222 238
f 238 222 239
f 233 232 234
f 232 216 234
f 234 216 235
f 216 217 235
f 217 218 235
f 235 218 236
f 222 223 239
f 239 223 240
f 222 206 223
f 206 207 223
f 223 207 224
f 207 208 224
f 224 208 225
f 225 208 226
f 208 209 226
f 226 209 227
f 209 210 227
f 210 211 227
f 211 212 227
f 212 213 227
f 227 213 228
f 229 228 230
f 228 213 230
f 213 214 230
f 230 214 231
f 219 205 220
f 202 203 218
f 217 202 218
f 218 203 219
f 204 205 219
f 203 204 219
f 205 206 221
f 221 206 222
f 220 205 221
f 205 194 206
f 194 195 206
f 206 195 207
f 195 196 207
f 208 207 209
f 207 196 209
f 196 197 209
f 197 198 209
f 209 198 210
f 210 198 211
f 198 199 211
f 199 200 211
f 212 201 213
f 214 213 215
f 204 193 205
f 193 194 205
f 193 185 194
f 185 186 194
f 186 187 194
f 194 187 195
f 187 192 195
f 192 191 195
f 195 191 196
f 196 191 197
f 191 190 197
f 190 188 197
f 198 197 199
f 197 188 199
f 191 192 189
f 190 191 189
f 164 165 172
f 169 170 173
f 170 157 171
f 169 153 170
f 153 154 170
f 154 155 170
f 155 156 170
f 156 157 170
f 163 162 164
f 162 143 164
f 143 144 164
f 144 146 164
f 164 146 165
f 165 146 166
f 146 147 166
f 166 147 167
f 147 148 167
f 148 149 167
f 149 150 167
f 167 150 168
f 150 151 168
f 168 151 169
f 151 152 169
f 152 153 169
f 140 141 159
f 159 141 160
f 141 142 160
f 160 142 161
f 139 138 140
f 140 138 141
f 139 140 158
f 157 156 158
f 156 139 158
f 152 134 153
f 153 134 154
f 134 135 154
f 135 136 154
f 154 136 155
f 136 137 155
f 137 139 155
f 155 139 156
f 161 142 162
f 142 143 162
f 142 122 143
f 122 123 143
f 143 123 144
f 123 124 144
f 124 125 144
f 125 126 144
f 126 127 144
f 127 145 144
f 144 145 146
f 146 145 147
f 145 127 147
f 127 128 147
f 147 128 148
f 128 129 148
f 129 130 148
f 148 130 149
f 149 130 150
f 130 131 150
f 131 132 150
f 150 132 151
f 132 133 151
f 151 133 152
f 133 134 152
f 138 122 141
f 141 122 142
f 122 138 137
f 137 138 139
f 133 117 134
f 117 118 134
f 118 119 134
f 134 119 135
f 135 119 136
f 119 120 136
f 120 121 136
f 136 121 137
f 121 122 137
f 122 121 123
f 123 121 124
f 121 106 124
f 124 106 125
f 106 107 125
f 107 108 125
f 125 108 126
f 108 109 126
f 109 110 126
f 127 126 128
f 126 110 128
f 128 110 129
f 110 111 129
f 111 112 129
f 129 112 130
f 112 113 130
f 130 113 131
f 131 116 132
f 113 114 131
f 114 115 131
f 115 116 131
f 132 117 133
f 116 117 132
f 116 104 117
f 117 104 118
f 104 105 118
f 118 105 119
f 119 105 120
f 105 106 120
f 120 106 121
f 105 93 106
f 106 93 107
f 93 94 107
f 94 95 107
f 107 95 108
f 108 95 109
f 95 96 109
f 96 97 109
f 110 109 111
f 109 97 111
f 97 98 111
f 111 98 112
f 98 99 112
f 112 99 113
f 113 99 114
f 115 103 116
f 103 104 116
f 99 100 114
f 100 101 114
f 101 102 114
f 114 102 115
f 102 103 115
f 103 92 104
f 104 92 105
f 92 93 105
f 93 92 94
f 92 80 94
f 80 81 94
f 81 82 94
f 94 82 95
f 95 82 96
f 82 83 96
f 83 84 96
f 96 84 97
f 97 84 98
f 84 85 98
f 98 85 99
f 86 87 99
f 99 87 100
f 85 86 99
f 102 90 103
f 90 91 103
f 91 92 103
f 87 88 100
f 100 88 101
f 88 89 101
f 89 90 101
f 101 90 102
f 91 79 92
f 79 80 92
f 80 79 81
f 79 68 81
f 68 69 81
f 82 81 83
f 81 69 83
f 83 70 84
f 69 70 83
f 84 70 85
f 85 70 86
f 70 71 86
f 71 72 86
f 86 72 87
f 72 73 87
f 87 73 88
f 89 78 90
f 78 79 90
f 90 79 91
f 73 74 88
f 88 74 89
f 74 75 89
f 75 76 89
f 76 77 89
f 77 78 89
f 78 68 79
f 68 67 69
f 67 68 77
f 77 68 78
f 67 56 69
f 69 56 70
f 70 56 71
f 56 57 71
f 71 57 72
f 57 58 72
f 58 59 72
f 59 60 72
f 72 60 73
f 60 61 73
f 73 61 74
f 74 61 75
f 61 62 75
f 62 63 75
f 63 64 75
f 64 65 75
f 75 65 76
f 65 66 76
f 76 66 77
f 66 67 77
f 66 55 67
f 55 56 67
f 55 43 56
f 56 43 57
f 57 43 58
f 43 44 58
f 58 44 59
f 44 45 59
f 45 46 59
f 59 46 60
f 60 46 61
f 46 47 61
f 61 47 62
f 62 47 63
f 47 48 63
f 48 49 63
f 49 50 63
f 50 51 63
f 51 52 63
f 63 52 64
f 52 53 64
f 64 53 65
f 53 54 65
f 65 54 66
f 54 55 66
f 54 43 55
f 42 43 54
f 43 42 44
f 42 33 44
f 44 33 45
f 33 34 45
f 34 35 45
f 45 35 46
f 46 35 47
f 35 36 47
f 47 36 48
f 36 37 48
f 48 37 49
f 37 38 49
f 49 38 50
f 39 40 50
f 50 40 51
f 38 39 50
f 40 41 51
f 51 41 52
f 52 41 53
f 41 42 53
f 53 42 54
f 41 32 42
f 32 33 42
f 33 32 34
f 32 23 34
f 34 23 35
f 35 23 36
f 23 25 36
f 36 25 37
f 25 26 37
f 26 27 37
f 37 27 38
f 27 28 38
f 38 28 39
f 28 29 39
f 39 29 40
f 29 30 40
f 30 31 40
f 31 32 40
f 40 32 41
f 31 24 32
f 24 23 32
f 23 24 25
f 24 22 25
f 22 14 25
f 25 14 26
f 14 15 26
f 26 15 27
f 27 15 28
f 15 16 28
f 16 17 28
f 17 18 28
f 18 19 28
f 29 28 30
f 28 19 30
f 19 20 30
f 30 20 31
f 20 21 31
f 21 22 31
f 22 24 31
f 21 13 22
f 13 14 22
f 15 14 16
f 14 6 16
f 13 5 14
f 5 6 14
f 6 7 16
f 7 8 16
f 16 8 17
f 8 9 17
f 9 11 17
f 17 11 18
f 18 11 19
f 11 10 19
f 19 10 20
f 20 10 21
f 10 12 21
f 12 13 21
f 12 5 13
f 6 5 7
f 4 2 5
f 7 5 8
f 5 2 8
f 4 5 12
f 2 1 8
f 8 1 9
f 1 3 9
f 11 9 12
f 9 3 12
f 10 11 12
f 3 4 12
f 1 2 3
f 3 2 4
